<svg width="46" height="45" viewBox="0 0 46 45" fill="none" xmlns="http://www.w3.org/2000/svg">
<g clip-path="url(#clip0)">
<path d="M36.775 5.9099C36.6664 5.84974 36.5255 5.89932 36.4656 6.00787C36.1916 6.60729 35.7402 7.12974 35.2233 7.55221C34.7065 7.97468 34.0965 8.29599 33.4621 8.53294C32.1922 9.03457 30.8215 9.28194 29.4529 9.47387C28.0844 9.66579 26.7026 9.84326 25.3185 10.0762C23.9489 10.2958 22.5626 10.5842 21.2262 11.0136C20.5508 11.2349 19.8876 11.4984 19.2498 11.8185C18.9238 11.9852 18.6254 12.1531 18.3127 12.3343C18.1563 12.4249 18.0276 12.5166 17.8712 12.6072C17.7282 12.7122 17.5718 12.8028 17.4287 12.9078C16.2841 13.7481 15.2548 14.8293 14.5105 16.0753C14.1378 16.7122 13.8471 17.3804 13.6241 18.093C13.4288 18.8069 13.3023 19.5376 13.2866 20.2729C13.271 21.0083 13.3519 21.7616 13.5447 22.4919C13.6411 22.8571 13.752 23.209 13.905 23.5488C14.0435 23.9018 14.293 24.2596 14.6224 24.3569C14.8686 24.4506 15.1137 24.225 15.2301 24.091C23.2782 16.2806 30.6802 19.372 35.7152 10.8644C35.5666 11.108 35.4811 11.5071 35.2826 11.957C35.0551 12.4334 34.7678 13.0184 34.3541 13.6396C33.9403 14.2609 33.4279 14.9196 32.8178 15.5881C32.2078 16.2566 31.4857 16.9481 30.6816 17.6084C29.8775 18.2686 28.9902 18.9253 28.0342 19.5653C26.1365 20.8318 24.0192 22.0335 21.8876 23.2485C19.7426 24.4491 17.5976 25.6496 15.6567 26.956C14.6862 27.6092 13.7701 28.2925 12.936 29.007C12.1019 29.7215 11.3644 30.4541 10.7499 31.2335C10.1365 31.9851 9.63288 32.7692 9.27013 33.5037C8.90738 34.2383 8.68548 34.9232 8.52348 35.4996C8.45579 35.8023 8.39032 36.0495 8.367 36.2845C8.34813 36.4087 8.33037 36.5052 8.32592 36.6161C8.32369 36.6716 8.30816 36.7126 8.30593 36.768C8.2904 36.809 8.30259 36.8512 8.30148 36.8789C8.27593 37.1695 8.25595 37.3214 8.25595 37.3214C8.25483 37.3491 8.25483 37.3491 8.25372 37.3768C8.21704 37.9447 8.66944 38.436 9.23835 38.4463C9.80615 38.4842 10.2964 38.0329 10.3053 37.4639C10.3053 37.4639 10.312 37.2975 10.3232 37.0202C10.3243 36.9925 10.3265 36.937 10.3276 36.9093C10.3287 36.8816 10.3443 36.8406 10.3321 36.7984C10.3487 36.7297 10.352 36.6465 10.3554 36.5633C10.3621 36.3969 10.4131 36.163 10.4497 35.9424C10.5518 35.4745 10.6994 34.9114 10.9745 34.2843C11.2352 33.6704 11.6102 32.9781 12.1238 32.2916C12.624 31.5907 13.2496 30.8812 13.9994 30.1909C14.7358 29.4861 15.5688 28.7993 16.4705 28.1293C16.5703 28.0641 16.6568 27.9844 16.7422 27.9325L16.7822 27.9758C16.9574 28.1083 17.1459 28.2551 17.3211 28.3875C17.6715 28.6524 18.0507 28.8907 18.4444 29.1157C19.204 29.5645 20.0368 29.9192 20.8873 30.1775C21.7379 30.4358 22.6206 30.5843 23.5222 30.6087C24.4094 30.6463 25.3011 30.573 26.155 30.4009C27.8762 30.0712 29.5287 29.3775 30.9961 28.4538C32.4634 27.53 33.7733 26.3774 34.9091 25.0646C36.0305 23.7651 37.0055 22.3066 37.721 20.7399C38.4499 19.1877 38.9614 17.5152 39.1967 15.8031C39.4321 14.0911 39.3636 12.3384 38.9591 10.6548C38.5678 8.98559 37.855 7.37221 36.8981 5.95678C36.8294 5.93998 36.8161 5.92553 36.775 5.9099Z" fill="white"/>
</g>
<defs>
<clipPath id="clip0">
<rect width="42.6293" height="20.9407" fill="white" transform="translate(0 28.875) rotate(-42.6362)"/>
</clipPath>
</defs>
</svg>
