<svg width="40" height="44" viewBox="0 0 40 44" fill="none" xmlns="http://www.w3.org/2000/svg">
<g clip-path="url(#clip0)">
<path d="M20.3822 29.7383C21.9122 29.7683 23.4628 29.9725 25.0062 29.8244C26.5839 29.6723 27.1331 30.2072 26.9689 31.7447C26.7922 33.1779 26.6882 34.6377 26.5841 36.0975C26.3623 39.1952 24.5862 40.889 21.8557 41.8488C20.8885 42.1756 20.3547 42.0625 20.184 40.9177C20.0133 39.773 19.6374 38.6526 19.531 37.465C19.3738 36.1421 18.7055 35.4801 17.501 35.2702C16.7579 35.1466 16.0365 34.9146 15.2975 34.8259C10.9358 34.3203 8.70704 31.6195 7.70178 27.5379C7.36945 26.2005 6.89615 24.8446 6.33265 23.6053C6.04055 22.8986 5.42293 22.3718 4.938 21.794C4.20499 22.34 3.6949 22.7184 2.99197 23.2255C2.96526 22.4167 2.97164 21.8864 2.91374 21.399C2.62234 18.3622 4.33719 17.0288 7.11478 18.2169C8.68495 18.8776 10.2416 19.7165 11.6998 20.6023C12.0366 20.8095 12.0291 21.6223 12.2144 22.3064C13.1248 21.2097 13.9804 19.9431 15.0099 18.9735C16.8804 17.1979 18.8618 15.4798 20.8897 13.862C24.8213 10.7472 27.4439 6.83465 28.8519 2.04262C28.9515 1.71305 29.1278 1.44498 29.4597 0.734785C29.9082 1.88182 30.1785 2.697 30.5337 3.64329C30.963 3.16865 31.3581 2.69807 31.9636 1.95537C32.1862 2.95273 32.3456 3.71047 32.5557 4.60339C32.8854 4.45832 33.2451 4.27436 33.9003 3.9494C33.8004 5.44402 33.7358 6.65202 33.6234 8.04221C34.1718 7.69462 34.6518 7.35517 35.2646 6.96464C35.9397 9.14386 34.4519 10.3444 33.5693 11.9673C34.0825 11.9064 34.4929 11.8576 35.4507 11.7438C34.4708 13.1311 33.7957 14.1645 33.0221 15.2449C33.3465 15.3476 33.7093 15.481 34.4265 15.6783C33.4311 16.6438 32.6586 17.4416 31.852 18.2435C33.106 18.8712 32.2486 19.538 31.8099 20.2255C28.955 24.5187 25.9343 28.5844 20.1627 29.0583C20.2601 29.2938 20.3191 29.4986 20.3822 29.7383Z" fill="white"/>
<path d="M15.1236 9.71061C16.081 10.7619 17.0851 11.9135 18.1493 12.9874C19.056 13.9035 18.6557 14.6218 17.905 15.3112C16.3394 16.7328 14.778 18.1892 13.174 19.5801C12.8609 19.8644 12.3053 19.8598 11.9715 19.9701C13.0713 16.3797 14.0974 13.0451 15.1236 9.71061Z" fill="white"/>
</g>
<defs>
<clipPath id="clip0">
<rect width="34" height="40" fill="white" transform="translate(0.759766 4.14453) rotate(-6.77506)"/>
</clipPath>
</defs>
</svg>
