<svg width="22" height="25" viewBox="0 0 22 25" fill="none" xmlns="http://www.w3.org/2000/svg">
<path d="M21.6992 20.9107L17.4152 16.2373C17.2219 16.0264 16.9598 15.9092 16.6848 15.9092H15.9844C17.1703 14.2545 17.875 12.1732 17.875 9.90918C17.875 4.52324 13.8746 0.15918 8.9375 0.15918C4.00039 0.15918 0 4.52324 0 9.90918C0 15.2951 4.00039 19.6592 8.9375 19.6592C11.0129 19.6592 12.9207 18.8904 14.4375 17.5967V18.3607C14.4375 18.6607 14.5449 18.9467 14.7383 19.1576L19.0223 23.8311C19.4262 24.2717 20.0793 24.2717 20.4789 23.8311L21.6949 22.5045C22.0988 22.0639 22.0988 21.3514 21.6992 20.9107ZM8.9375 15.9092C5.89961 15.9092 3.4375 13.2279 3.4375 9.90918C3.4375 6.59512 5.89531 3.90918 8.9375 3.90918C11.9754 3.90918 14.4375 6.59043 14.4375 9.90918C14.4375 13.2232 11.9797 15.9092 8.9375 15.9092Z" fill="#081D31"/>
</svg>
