<svg width="23" height="22" viewBox="0 0 23 22" fill="none" xmlns="http://www.w3.org/2000/svg">
<path d="M20.909 0.775007C18.816 0.920788 14.6558 1.45141 12.0876 3.38079C11.9104 3.51391 11.8099 3.75063 11.8099 3.99813V21.0545C11.8099 21.5959 12.2923 21.9381 12.6991 21.6869C15.3414 20.0547 19.1628 19.6094 21.0522 19.4875C21.6973 19.4458 22.1988 18.8111 22.1988 18.0503V2.21407C22.1992 1.38391 21.6126 0.726257 20.909 0.775007ZM10.3104 3.38079C7.74262 1.45141 3.58248 0.921257 1.48943 0.775007C0.785885 0.726257 0.199219 1.38391 0.199219 2.21407V18.0508C0.199219 18.812 0.700712 19.4467 1.34582 19.488C3.23606 19.6098 7.05932 20.0556 9.70161 21.6888C10.1072 21.9395 10.5881 21.5978 10.5881 21.0578V3.98969C10.5881 3.74173 10.488 3.51438 10.3104 3.38079Z" fill="white"/>
</svg>
