<svg width="78" height="108" viewBox="0 0 78 108" fill="none" xmlns="http://www.w3.org/2000/svg">
<g clip-path="url(#clip0)">
<path d="M44.493 81.1886C44.493 87.9795 44.493 94.2673 44.493 100.555C44.493 102.014 45.1421 102.618 46.4904 102.919C48.7875 103.372 51.0346 103.925 52.9821 105.384C53.6312 105.887 54.4802 106.441 54.1306 107.396C53.7811 108.251 52.8323 108 52.1332 108C43.3944 108 34.6556 108 25.9168 108C25.1178 108 24.0691 108.302 23.7695 107.245C23.5198 106.29 24.3688 105.736 25.0679 105.284C26.9155 104.026 28.9629 103.372 31.1101 103.02C32.758 102.769 33.557 102.064 33.507 100.203C33.4072 95.0219 33.4571 89.7904 33.507 84.6092C33.507 82.9492 33.0077 82.3456 31.3099 82.6977C28.9129 83.2007 26.9155 82.3456 25.3175 80.4341C24.8681 79.8304 24.3688 79.2268 23.7196 78.8244C17.927 75.3535 18.8259 69.9711 19.5749 64.5887C19.6248 64.3372 19.6248 64.0354 19.7746 63.8845C23.1204 60.1118 19.7747 57.496 17.8271 55.2324C13.3828 49.9003 8.58899 44.87 7.88989 37.4755C7.74008 36.0168 6.69142 36.1174 5.6927 36.0671C0 35.7652 0 35.7652 0 29.9804C0 29.578 0 29.1253 0 28.7229C0 25.252 0.0499359 25.2017 3.49552 25.2017C3.99488 25.2017 4.49424 25.2017 4.9936 25.2017C7.44046 25.1011 7.83995 24.4974 6.74136 22.3344C6.34187 21.5296 5.89245 20.6744 5.64277 19.8193C5.24328 18.4108 5.19334 17.0526 6.59155 15.9963C8.13957 14.8393 9.23816 12.626 11.8348 14.3363C13.4328 15.3926 16.3291 18.1593 18.2266 16.0466C19.3752 14.6884 25.6671 19.2659 29.4622 21.8817C30.0615 22.3344 31.9091 23.4411 32.5583 23.1896C33.6569 22.7871 33.4072 20.4732 33.4571 18.9641C33.557 14.3363 33.507 9.75872 33.507 5.13087C33.507 -0.704247 33.4571 0.100597 38.5006 0.100597C45.0423 0.100597 44.443 -1.00606 44.493 5.98602C44.493 11.5193 44.5429 17.0526 44.493 22.5859C44.443 24.5477 45.1921 25.2017 47.1396 25.2017C56.3777 25.1514 65.6159 25.252 74.854 25.1514C77.251 25.1011 78.2497 25.8556 78.0499 28.3204C77.9001 29.9804 77.9501 31.6907 78.0499 33.3507C78.1498 35.4634 77.251 36.1174 75.2036 36.0671C67.9629 35.9665 60.7222 36.0168 53.4814 36.0168C50.4853 36.0168 50.5852 35.9665 51.5339 38.7834C52.6825 42.3046 53.8809 45.7755 55.5788 49.0452C56.4277 50.6549 57.1268 51.4094 58.9744 50.2021C60.6223 49.0955 62.5199 48.844 64.5173 49.347C66.0653 49.7494 67.5634 49.4979 69.1114 49.347C72.0077 49.0452 74.8041 50.3027 77.0512 52.2142C78.1498 53.1197 77.9001 54.4779 77.251 55.6851C76.4021 57.1942 75.1537 58.4015 73.6056 59.0051C71.5583 59.7597 70.5096 61.2687 69.411 63.0293C67.3137 66.3493 65.2663 69.6693 63.6684 73.2911C61.6709 77.8183 58.6748 81.591 53.4315 82.8486C50.3355 83.5528 47.4891 83.5528 44.493 81.1886ZM35.0051 21.2781C32.758 23.7932 32.758 23.7932 35.0551 26.8617C36.9526 29.075 39.5992 30.5338 41.1473 33.1495C41.6466 34.0047 42.5455 34.8095 41.5467 36.6707C39.9987 32.0428 36.2535 30.0307 33.4571 27.1132C29.612 23.0386 25.0179 20.0708 19.9245 17.8575C18.9757 17.455 17.927 17.0526 17.2778 18.2096C16.5787 19.5175 17.977 19.6684 18.6261 20.1211C23.4699 23.2399 28.1639 26.5598 32.1588 30.7853C34.1562 32.9483 36.0038 35.2119 37.3521 37.9283C36.2535 38.2804 36.0538 37.7774 35.8041 37.3749C32.2586 31.8919 27.5147 27.6162 22.1716 23.9441C19.5749 22.1332 16.6287 20.8253 14.5314 18.3605C14.1818 17.9581 11.8348 15.3423 10.0371 15.1914C8.38925 15.0405 7.29065 17.2538 7.14085 17.3544C6.89117 17.5053 6.69142 17.8575 6.69142 18.1593C6.64149 19.6181 7.19078 20.8756 8.08963 22.1332C9.18822 19.4169 10.0871 19.115 12.1844 20.7247C13.0832 21.429 13.8822 22.3344 14.8809 22.938C20.7234 26.3586 26.0166 30.5338 30.3611 35.8155C31.0602 36.6204 31.9091 37.5258 31.3598 39.0852C28.3137 35.5137 25.8668 31.5901 22.0218 29.4271C18.9757 27.6162 17.0282 23.1896 12.2843 24.6483C11.8848 24.7489 10.7362 24.1453 11.7849 23.4914C12.3342 23.1393 12.9334 23.1393 12.2343 22.435C11.685 21.8817 11.1357 20.9762 10.1869 21.2277C9.33803 21.4793 9.68758 22.3344 9.78745 22.9883C9.9872 24.4471 11.735 25.1011 11.6351 26.7107C11.5352 26.8114 11.3854 26.912 11.2855 27.0126C10.1869 26.6101 9.48784 24.2459 8.53905 25.252C6.89117 26.912 5.19334 26.258 3.44558 26.4592C2.54674 26.5598 1.39821 26.3083 1.29834 27.6162C1.14853 29.7792 0.549296 32.1937 1.54802 34.055C2.44686 35.7652 4.74392 34.5077 6.39181 34.8095C6.64149 34.8598 6.89117 34.8598 7.14085 34.8095C8.58899 34.7089 9.18822 35.2622 9.23816 36.8216C9.4379 40.8458 10.6863 44.4173 13.3329 47.6367C15.3303 50.0512 17.5775 52.4155 19.2254 54.9809C22.1716 59.5584 25.8169 63.5827 28.863 68.0596C30.3111 70.122 31.3598 70.2729 33.3572 68.7135C34.2062 68.0596 34.9053 66.9529 36.6031 67.2045C35.0551 68.9148 33.8067 70.4238 31.8092 71.0275C29.9117 71.5808 28.9629 69.8705 27.4149 68.8644C27.4648 70.8263 27.5647 72.4863 29.1626 73.3414C30.6108 74.0959 31.3598 72.5869 32.3086 71.8826C34.0563 70.4741 36.3035 70.3232 38.201 69.0154C38.3508 70.3232 37.8015 70.9269 37.0525 71.1281C34.8553 71.7317 33.0077 72.939 31.21 74.3475C29.662 75.5547 28.1639 74.8505 27.2151 73.2408C26.2164 71.5305 25.767 69.6693 25.9667 67.7075C26.0666 66.9529 26.1665 65.9972 25.2177 65.8966C24.219 65.796 24.219 66.9529 24.1191 67.5566C23.7196 70.4238 23.37 73.2911 26.2164 75.4541C24.0192 75.2026 22.9206 74.0959 22.7708 72.0838C22.621 69.8202 22.621 67.5566 23.4699 65.3936C23.9193 64.2366 23.8694 63.0293 22.5711 62.6772C21.3227 62.3754 21.1229 63.7336 20.7234 64.639C20.6236 64.9408 20.5736 65.293 20.5237 65.5948C19.9245 70.625 19.525 75.5547 24.8182 78.5729C25.1178 78.7238 25.3175 79.0256 25.5173 79.2771C27.1652 81.6917 29.5122 82.1947 32.1088 81.3898C34.1562 80.7359 34.8054 81.4904 34.8054 83.5025C34.7554 89.388 34.7554 95.2231 34.8054 101.109C34.8054 103.02 34.2062 103.925 32.1588 104.177C28.4136 104.63 27.0653 105.334 25.8668 106.692C34.5058 106.692 43.1946 106.692 52.3329 106.692C49.9859 104.932 47.589 104.479 45.242 104.127C43.6441 103.875 42.8451 103.272 42.8451 101.612C42.8451 93.9152 42.8451 86.1686 42.8451 78.4723C42.8451 76.3093 44.8924 74.8505 45.9411 75.2529C49.0871 76.4099 50.9347 73.7438 53.4814 73.442C54.4302 73.3414 55.3291 72.3856 56.6773 73.2408C54.8297 74.599 52.8323 74.9008 51.0845 75.6553C49.3867 76.4099 47.6389 76.9632 46.4904 78.5226C46.0909 79.0256 45.4917 79.6292 45.9411 80.2832C46.2907 80.8365 46.9898 80.5347 47.589 80.4341C50.1857 79.9311 52.4328 78.7238 54.58 77.2147C55.1293 76.8626 55.5788 75.9571 56.5775 76.6111C54.6799 79.5286 51.484 80.3838 48.388 81.8426C53.7811 82.7983 58.6248 80.3335 61.4213 74.7499C63.7183 70.2226 65.9654 65.6954 68.8617 61.4699C69.5608 60.4639 69.8105 59.4075 69.5109 58.15C69.2113 56.8924 69.1613 55.5845 70.6095 54.6791C71.3585 55.9366 69.6607 57.8985 71.5083 58.3009C73.2561 58.7033 74.5045 57.1942 75.6031 55.8863C76.2522 55.1318 76.6517 54.0754 76.0026 53.3712C74.3047 51.6609 71.9578 51.3088 69.7606 50.6046C69.0115 50.4033 68.3624 51.007 68.1127 51.8118C68.0128 52.2142 67.9129 52.6167 67.7631 53.0191C67.2638 54.9809 66.4648 56.8924 65.1165 58.4015C62.7196 61.1178 60.6223 63.9348 60.1229 67.6572C60.1229 67.7075 59.8233 67.7075 59.6735 67.7075C59.1242 65.1924 59.8732 62.476 61.8707 60.4136C63.0192 59.2063 64.1677 57.9488 64.9168 56.49C65.7158 54.9306 67.5135 53.0694 66.1652 51.5603C64.767 50.0009 62.3201 50.3027 60.2727 51.007C59.8233 51.1579 59.274 51.3088 58.9245 51.6106C56.977 53.3712 56.0282 52.5161 54.8297 50.5543C51.7836 45.6749 51.2343 39.7392 47.8886 35.061C55.6786 35.0107 63.5186 35.0107 71.3086 34.9101C77.4008 34.8598 76.5019 35.8155 76.7017 29.3768C76.7516 27.1132 75.9526 26.5095 73.8054 26.5095C64.767 26.6101 55.6786 26.5598 46.6402 26.5598C42.9949 26.5598 42.9449 26.4592 42.895 22.6865C42.895 17.4047 42.895 12.123 42.895 6.84117C42.895 1.05635 42.895 1.10665 37.1524 1.35817C35.7042 1.30786 34.9552 1.81089 34.9552 3.47088C35.0051 9.4066 35.0051 15.3423 35.0051 21.2781Z" fill="white"/>
<path d="M35.0051 21.278C38.3009 20.0204 38.8002 20.3725 39.8489 23.7931C40.8975 27.1634 43.3444 29.5276 45.9411 31.7913C46.9398 32.6967 48.1382 33.3003 48.0384 34.91C45.8911 33.25 43.5941 31.7913 41.9961 29.427C40.4481 27.1634 38.8002 21.1774 36.9526 21.2277C35.055 21.278 33.4071 23.0386 35.105 26.8616C32.758 23.7931 32.758 23.7931 35.0051 21.278Z" fill="white"/>
<path d="M11.4854 31.3388C10.237 29.9303 10.1871 28.4715 11.2857 26.9625C11.3855 26.8619 11.5353 26.7613 11.6352 26.6606C13.0334 26.7109 14.182 27.3649 15.1307 28.3709C18.4765 32.043 21.8721 35.7654 25.2178 39.4878C25.7172 40.0412 26.2165 40.6448 26.5161 41.2987C26.8158 42.003 26.4163 42.7575 25.7671 42.9084C24.7184 43.2103 25.2178 42.2545 25.068 41.8018C24.9182 41.2484 24.7184 40.5945 24.319 40.2927C21.3727 37.7272 19.2255 34.357 16.4291 31.5903C15.8798 31.037 12.9336 27.6164 12.0846 28.22C10.9861 28.9746 14.4816 32.2946 14.8311 32.7976C17.6775 37.526 21.173 41.8521 23.9195 46.5805C26.5661 51.1581 29.6122 55.132 33.2575 58.8544C37.0027 62.6774 41.9963 63.8847 46.3407 66.4501C47.4393 67.1041 47.689 65.9974 47.7889 65.3435C48.488 60.9671 52.8324 59.3574 54.5302 55.7356C55.0296 57.798 53.6813 59.1059 52.5328 60.112C50.2857 62.0235 49.1371 64.3877 48.6378 67.1544C48.3382 68.5628 47.7389 69.0156 46.4406 68.0095C43.8939 66.0477 40.5482 65.595 37.9515 63.8847C32.3087 60.112 27.5648 55.4338 24.0693 49.3975C20.7735 43.7636 16.9284 38.4818 13.333 33.0491C13.0334 32.5964 12.4841 32.2946 12.0347 31.8921C11.8849 31.6909 11.6852 31.4897 11.4854 31.3388Z" fill="white"/>
<path d="M11.4853 31.3387C11.685 31.5399 11.8349 31.6908 12.0346 31.892C12.534 33.2502 13.0333 34.5581 13.0333 36.0169C13.0833 39.2362 14.032 42.0532 16.5788 44.2162C17.3278 44.8701 18.2267 45.675 18.1268 46.9326C15.2305 45.8259 12.2843 41.3993 11.8349 37.6265C11.735 36.7211 11.5352 35.8156 11.4853 34.9102C11.3355 32.6969 10.5865 32.2945 8.68889 34.3066C10.137 31.3387 6.99106 29.8296 7.19081 27.1636C9.33805 28.069 9.03844 31.1878 11.4853 31.3387Z" fill="white"/>
</g>
<defs>
<clipPath id="clip0">
<rect width="78" height="108" fill="white"/>
</clipPath>
</defs>
</svg>
