<svg width="142" height="102" viewBox="0 0 142 102" fill="none" xmlns="http://www.w3.org/2000/svg">
<path d="M0 75.0223H9.05179V73.01H2.20009V67.9791H8.98893V65.9668H2.20009V61.1246H9.05179V59.1123H0V75.0223Z" fill="#081D31"/>
<path d="M15.5891 59.1123H13.3262V75.0223H21.4351V73.01H15.5891V59.1123Z" fill="#081D31"/>
<path d="M39.4136 67.4759C40.0422 66.5955 40.4194 65.4636 40.3565 64.3317C40.3565 62.508 39.4765 60.7472 38.1564 59.9926C37.2135 59.4266 35.9564 59.175 33.6934 59.175H29.4189V75.0851H31.619V61.1245H33.7563C35.202 61.1245 36.0821 61.1874 36.7107 61.6276C37.5278 62.1935 38.0936 63.2626 38.0936 64.3945C38.0936 65.4636 37.7164 66.344 37.025 67.0357C36.2707 67.7903 34.6992 67.7903 33.7563 67.7903H32.8134L37.465 75.0222H39.9165L36.0821 69.2367C37.5278 69.0481 38.5336 68.6079 39.4136 67.4759Z" fill="#081D31"/>
<path d="M43.876 75.0223H52.8649V73.01H46.0761V67.9791H52.8649V65.9668H46.0761V61.1246H52.8649V59.1123H43.876V75.0223Z" fill="#081D31"/>
<path d="M65.5625 71.6894L60.0308 59.1123H57.2021V75.0223H59.2765L59.2137 62.3195L64.8082 75.0223H66.2539L71.7856 62.3195L71.7227 75.0223H73.86V59.1123H71.0313L65.5625 71.6894Z" fill="#081D31"/>
<path d="M85.6776 59.1123H83.6661L77.0029 75.0223H79.3916L81.1517 70.6832H88.0034L89.7634 75.0223H92.1521L85.6776 59.301V59.1123ZM87.3119 68.7967H81.906L84.609 62.005L87.3119 68.7967Z" fill="#081D31"/>
<path d="M106.17 71.4378L97.4953 59.1123H95.4209V75.0223H97.5581L97.4953 62.6339L106.233 75.0223H108.307V59.1123H106.107L106.17 71.4378Z" fill="#081D31"/>
<path d="M118.491 66.1553L118.176 66.0295C115.976 65.2749 114.719 64.8347 114.719 63.1997C114.719 61.8162 115.788 60.81 117.296 60.81C119.119 60.81 119.559 62.1306 119.748 63.1368L119.811 63.3255H122.011V63.0739C121.759 59.9925 119.371 58.8606 117.422 58.8606C115.976 58.8606 114.656 59.3637 113.776 60.307C112.959 61.1245 112.582 62.1935 112.582 63.3883C112.582 66.4697 115.473 67.3501 116.668 67.7274L116.919 67.7903C118.616 68.3563 120.125 68.7965 120.125 70.683C120.125 72.1294 118.868 73.3871 117.296 73.3871C117.045 73.3871 114.719 73.3242 114.468 70.4944V70.2428H112.268V70.4944C112.393 73.3871 114.405 75.2737 117.359 75.2737C120.251 75.2737 122.388 73.2613 122.388 70.4944C122.325 67.6017 119.936 66.6584 118.491 66.1553Z" fill="#081D31"/>
<path d="M133.703 58.8606C128.988 58.8606 125.405 62.3822 125.405 67.1615C125.405 71.7521 129.051 75.3366 133.703 75.3366C138.354 75.3366 142 71.7521 142 67.0986C142 62.4451 138.354 58.8606 133.703 58.8606ZM133.766 73.2613C130.308 73.2613 127.668 70.6202 127.668 67.0357C127.668 63.577 130.308 60.8729 133.703 60.8729C137.097 60.8729 139.8 63.577 139.8 67.0986C139.8 70.5573 137.16 73.2613 133.766 73.2613Z" fill="#081D31"/>
<path d="M70.8432 0.880371C70.8432 0.880371 56.7626 8.42661 57.7055 25.0283V25.5943L63.8029 23.9593L63.8657 20.1233L71.0946 17.545L70.8432 0.880371Z" fill="#30B5CB"/>
<path d="M70.8428 0.880371V46.9124C70.8428 46.9124 85.2376 39.492 84.0433 22.8902C82.9118 6.28851 71.5971 1.1948 70.8428 0.880371Z" fill="#45A736"/>
<path d="M57.7686 50.6856V25.783L63.8659 23.8965V20.1234L71.0319 17.4822V22.7017L78.1351 23.8965V50.6856H57.7686Z" fill="white"/>
<path d="M78.8889 49.931V41.3157C82.8491 36.4735 85.112 30.3736 85.112 23.9593C85.112 14.2121 79.8318 5.09371 71.4086 0.188656L71.0315 0L70.6543 0.188656C62.1683 5.1566 56.888 14.2121 56.888 23.9593C56.888 24.5253 56.888 25.0912 56.9509 25.7201V49.931H25.0811V51.5031H116.919V49.931H78.8889ZM77.3803 49.931H71.7229V47.5413C73.7973 46.2836 75.6831 44.7744 77.3803 43.0136V49.931ZM63.1112 38.926C60.4711 35.2158 58.8996 30.8767 58.4595 26.349L63.1112 24.9655V38.926ZM71.7229 10.8792L78.1346 8.11221C79.329 9.68434 80.3347 11.3194 81.2147 13.143L71.7858 16.5388V10.8792H71.7229ZM81.7805 14.4636C82.2834 15.7842 82.7234 17.1048 82.9748 18.4254L71.7229 21.6954V18.0481L81.7805 14.4636ZM77.3803 40.8126C75.7459 42.6991 73.8602 44.397 71.7229 45.7805V23.582L77.3803 24.5882V40.8126ZM70.2772 49.931H64.6198V20.6264L70.2772 18.6141V49.931ZM78.8889 38.8631V23.3933L74.3002 22.5758L83.352 19.9347C83.5406 21.2552 83.6663 22.6387 83.6663 24.0222C83.6034 29.3675 81.9062 34.5869 78.8889 38.8631ZM77.1917 6.91739L71.7858 9.24414V2.20099C73.7973 3.52158 75.6202 5.09371 77.1917 6.91739ZM70.2772 2.20099V17.0419L63.174 19.6202V23.4562L58.4595 24.8397C58.4595 24.5882 58.4595 24.2737 58.4595 24.0222C58.3967 15.2183 62.9226 6.98027 70.2772 2.20099ZM58.4595 33.0148C59.5282 36.0333 61.0996 38.8631 63.1112 41.3786V49.931H58.4595V33.0148Z" fill="#081D31"/>
<path d="M18.2922 83.1972C18.3551 83.0715 18.4179 82.9457 18.5436 82.8199C18.6694 82.6941 18.7951 82.6313 18.9208 82.5684C19.0465 82.5055 19.2351 82.4426 19.3608 82.4426C19.5494 82.4426 19.6751 82.5055 19.8008 82.5684C19.9265 82.6313 20.0523 82.6941 20.178 82.8199C20.3037 82.9457 20.3666 83.0715 20.4294 83.1972C20.4923 83.323 20.5551 83.5116 20.5551 83.6374H20.9323C20.9323 83.4488 20.8694 83.1972 20.8066 83.0715C20.7437 82.8828 20.618 82.6941 20.4923 82.5684C20.3666 82.4426 20.178 82.3168 19.9894 82.2539C19.8008 82.1911 19.6123 82.1282 19.4237 82.1282C19.2351 82.1282 18.9837 82.1911 18.8579 82.2539C18.6694 82.3168 18.4808 82.4426 18.3551 82.5684C18.2293 82.6941 18.1036 82.8828 18.0408 83.0715C17.9779 83.2601 17.915 83.4488 17.915 83.6374V87.7879C17.915 87.9765 17.9779 88.228 18.0408 88.3538C18.1036 88.5425 18.2293 88.7311 18.3551 88.8569C18.4808 88.9827 18.6694 89.1084 18.8579 89.1713C19.0465 89.2342 19.2351 89.2971 19.4237 89.2971C19.6123 89.2971 19.8008 89.2342 19.9894 89.1713C20.178 89.1084 20.3037 88.9827 20.4923 88.8569C20.618 88.7311 20.7437 88.5425 20.8066 88.3538C20.8694 88.1652 20.9323 87.9765 20.9323 87.7879H20.5551C20.5551 87.9765 20.4923 88.1023 20.4294 88.228C20.3666 88.3538 20.3037 88.4796 20.178 88.6054C20.0523 88.7311 19.9265 88.794 19.8008 88.8569C19.6751 88.9198 19.4865 88.9827 19.3608 88.9827C19.1722 88.9827 19.0465 88.9198 18.9208 88.8569C18.7951 88.794 18.6694 88.7311 18.5436 88.6054C18.4179 88.4796 18.3551 88.3538 18.2922 88.228C18.2293 88.1023 18.1665 87.9136 18.1665 87.7879V83.6374C18.1665 83.4488 18.2293 83.323 18.2922 83.1972Z" fill="#081D31"/>
<path d="M19.3607 89.5486C19.1092 89.5486 18.9206 89.4857 18.6692 89.4228C18.4806 89.3599 18.292 89.2341 18.1035 89.0455C17.9777 88.8568 17.852 88.7311 17.7263 88.4795C17.6634 88.2909 17.6006 88.0393 17.6006 87.7878V83.6374C17.6006 83.3858 17.6634 83.1972 17.7263 82.9456C17.7892 82.757 17.9149 82.5683 18.1035 82.3796C18.292 82.2539 18.4178 82.1281 18.6692 82.0023C19.1092 81.8137 19.6121 81.8137 20.0521 82.0023C20.2407 82.0652 20.4293 82.191 20.6178 82.3796C20.7436 82.5054 20.8693 82.6941 20.995 82.9456C21.0579 83.1343 21.1207 83.3858 21.1207 83.6374V83.826H20.3664V83.6374C20.3664 83.5116 20.3664 83.3858 20.3036 83.26C20.2407 83.1343 20.1778 83.0714 20.115 82.9456C20.0521 82.8827 19.9264 82.8198 19.8007 82.757C19.5492 82.6312 19.2978 82.6312 19.0464 82.757C18.9206 82.8198 18.7949 82.8827 18.7321 82.9456C18.6692 83.0085 18.6063 83.1343 18.5435 83.26C18.4806 83.3858 18.4806 83.5116 18.4806 83.6374V87.7878C18.4806 87.9136 18.4806 88.0393 18.5435 88.1651C18.6063 88.2909 18.6692 88.4166 18.7321 88.4795C18.7949 88.5424 18.9206 88.6053 19.0464 88.6682C19.2978 88.7939 19.5492 88.7939 19.8007 88.6682C19.9264 88.6053 19.9893 88.5424 20.115 88.4795C20.1778 88.4166 20.2407 88.2909 20.3036 88.1651C20.3664 88.0393 20.3664 87.9136 20.3664 87.7878V87.5991H21.1207V87.7878C21.1207 88.0393 21.0579 88.228 20.995 88.4795C20.9321 88.6682 20.8064 88.8568 20.6178 89.0455C20.4921 89.1713 20.3036 89.297 20.0521 89.4228C19.8007 89.4857 19.6121 89.5486 19.3607 89.5486Z" fill="#081D31"/>
<path d="M26.338 84.4551C26.2123 84.3293 26.0865 84.2035 25.898 84.1407C25.7094 84.0778 25.5837 84.0149 25.3322 84.0149C25.1437 84.0149 24.9551 84.0778 24.7665 84.1407C24.5779 84.2035 24.4522 84.3293 24.3265 84.4551C24.2008 84.5809 24.075 84.7066 24.0122 84.8953C23.9493 85.0839 23.8865 85.2726 23.8865 85.4612H24.2636C24.2636 85.3355 24.2636 85.1468 24.3265 85.0211C24.3893 84.8953 24.4522 84.7695 24.5779 84.7066C24.7036 84.5809 24.7665 84.518 24.8922 84.4551C25.0179 84.3922 25.1437 84.3922 25.3322 84.3922C25.6465 84.3922 25.8351 84.518 26.0237 84.7066C26.2123 84.8953 26.2751 85.1468 26.2751 85.4612V86.0272C26.2123 86.0901 26.0865 86.0901 25.898 86.153C25.7094 86.2159 25.5837 86.2788 25.3951 86.3416C25.2065 86.4045 25.0808 86.4674 24.8922 86.5303C24.7665 86.5932 24.6408 86.6561 24.5779 86.6561C24.075 86.8447 23.7607 87.1592 23.7607 87.5994V87.9138C23.7607 88.1024 23.8236 88.2911 23.8865 88.4797C23.9493 88.6684 24.075 88.7942 24.2008 88.9199C24.3265 89.0457 24.4522 89.1715 24.6408 89.2344C24.8294 89.2973 25.0179 89.3601 25.2065 89.3601C25.3951 89.3601 25.5837 89.2973 25.7723 89.2344C25.9608 89.1715 26.0865 89.0457 26.2751 88.8571V89.2973H26.6523V87.9138V86.6561V85.3984C26.6523 85.2097 26.5894 85.0211 26.5266 84.8324C26.5266 84.7066 26.4637 84.5809 26.338 84.4551ZM26.338 86.6561V87.9138C26.338 88.0396 26.338 88.2282 26.2751 88.354C26.2123 88.4797 26.1494 88.6055 26.0237 88.6684C25.898 88.7942 25.8351 88.8571 25.7094 88.9199C25.5837 88.9828 25.458 88.9828 25.2694 88.9828C25.1437 88.9828 24.9551 88.9828 24.8294 88.9199C24.7036 88.8571 24.5779 88.7942 24.5151 88.6684C24.3893 88.5426 24.3265 88.4797 24.2636 88.354C24.2008 88.2282 24.2008 88.1024 24.2008 87.9138V87.5994C24.2008 87.4107 24.2636 87.2849 24.3893 87.222C24.5151 87.0963 24.6408 87.0334 24.7665 86.9705C24.8294 86.9705 24.8922 86.9076 25.0179 86.8447C25.1437 86.7818 25.2694 86.719 25.458 86.6561C25.5837 86.5932 25.7723 86.5303 25.898 86.4674C26.0237 86.4045 26.2123 86.3416 26.2751 86.3416V86.6561H26.338Z" fill="#081D31"/>
<path d="M25.2691 89.5487C25.0177 89.5487 24.8291 89.4858 24.6405 89.423C24.4519 89.3601 24.2634 89.2343 24.1376 89.0456C24.0119 88.9199 23.8862 88.7312 23.7605 88.5426C23.6976 88.3539 23.6348 88.1024 23.6348 87.9137V87.5993C23.6348 87.222 23.8233 86.7189 24.5777 86.4673C24.6405 86.4673 24.7662 86.4045 24.892 86.3416C25.0177 86.2787 25.2063 86.2158 25.3948 86.1529C25.5834 86.09 25.7091 86.0272 25.8977 85.9643C25.9606 85.9014 26.0863 85.9014 26.1492 85.9014V85.4612C26.1492 85.2096 26.0863 85.021 25.9606 84.8323C25.8349 84.6437 25.6463 84.5808 25.3948 84.5808C25.2691 84.5808 25.1434 84.5808 25.0805 84.6437C24.9548 84.7066 24.892 84.7694 24.8291 84.8323C24.7662 84.8952 24.7034 85.021 24.6405 85.0839C24.5777 85.2096 24.5777 85.2725 24.5777 85.3983V85.587H23.8233V85.3983C23.8233 85.1468 23.8862 84.9581 23.9491 84.7694C24.0119 84.5808 24.1376 84.3921 24.3262 84.2664C24.4519 84.1406 24.6405 84.0148 24.8291 83.8891C25.2063 83.7004 25.7091 83.7004 26.0863 83.8891C26.2749 83.9519 26.4635 84.0777 26.5892 84.2664C26.7149 84.3921 26.8406 84.5808 26.9035 84.7694C26.9663 84.9581 27.0292 85.2096 27.0292 85.3983V89.4858H26.2749V89.2972C26.212 89.3601 26.1492 89.3601 26.0863 89.3601C25.772 89.4858 25.5206 89.5487 25.2691 89.5487ZM26.1492 86.7189C26.1492 86.7189 26.0863 86.7189 26.0234 86.7818C25.8977 86.8447 25.7091 86.9075 25.5834 86.9704L24.892 87.222C24.7662 87.2849 24.6405 87.3477 24.5777 87.4106C24.5148 87.4735 24.4519 87.5364 24.4519 87.6622V87.9766C24.4519 88.1024 24.4519 88.2281 24.5148 88.291C24.5777 88.4168 24.6405 88.4797 24.7034 88.5426C24.7662 88.6054 24.892 88.6683 24.9548 88.7312C25.1434 88.7941 25.3948 88.7941 25.5834 88.7312C25.7091 88.6683 25.772 88.6054 25.8349 88.5426C25.8977 88.4797 25.9606 88.3539 26.0234 88.291C26.0863 88.1652 26.0863 88.1024 26.0863 87.9766V86.7189H26.1492Z" fill="#081D31"/>
<path d="M34.5724 84.4551C34.4466 84.3293 34.3209 84.2035 34.1323 84.1407C33.9438 84.0778 33.7552 84.0149 33.5666 84.0149C33.3152 84.0149 33.0637 84.0778 32.8123 84.2035C32.6237 84.3293 32.4351 84.518 32.3094 84.7066C32.1837 84.518 31.9951 84.3293 31.8065 84.2035C31.5551 84.0778 31.3665 84.0149 31.0522 84.0149C30.8636 84.0149 30.6751 84.0778 30.4865 84.1407C30.2979 84.2035 30.1722 84.3293 29.9836 84.518V84.0778H29.6064V85.4612V86.719V89.2973H29.9836V86.719V85.4612C29.9836 85.3355 29.9836 85.1468 30.0465 85.0211C30.1093 84.8953 30.1722 84.7695 30.2979 84.7066C30.4236 84.5809 30.4865 84.518 30.6122 84.4551C30.7379 84.3922 30.8636 84.3922 31.0522 84.3922C31.1779 84.3922 31.3665 84.3922 31.4922 84.4551C31.618 84.518 31.7437 84.5809 31.8065 84.7066C31.9323 84.8324 31.9951 84.8953 32.058 85.0211C32.1208 85.1468 32.1208 85.2726 32.1208 85.4612V86.719V89.2973H32.498V86.719V85.4612C32.498 85.3355 32.498 85.1468 32.5608 85.0211C32.6237 84.8953 32.6866 84.7695 32.8123 84.7066C32.938 84.5809 33.0009 84.518 33.1266 84.4551C33.2523 84.3922 33.378 84.3922 33.5666 84.3922C33.6923 84.3922 33.8809 84.3922 34.0066 84.4551C34.1323 84.518 34.2581 84.5809 34.3209 84.7066C34.4466 84.8324 34.5095 84.8953 34.5724 85.0211C34.6352 85.1468 34.6352 85.2726 34.6352 85.4612V86.719V89.2973H35.0124V86.719V85.4612C35.0124 85.2726 34.9495 85.0839 34.8867 84.8953C34.8238 84.7066 34.6981 84.5809 34.5724 84.4551Z" fill="#081D31"/>
<path d="M35.201 89.4858H34.4466V85.3982C34.4466 85.2725 34.4466 85.1467 34.3838 85.0838C34.3209 84.958 34.2581 84.8952 34.1952 84.8323C34.1323 84.7694 34.0066 84.7065 33.9438 84.6436C33.7552 84.5807 33.5037 84.5807 33.3152 84.6436C33.1894 84.7065 33.1266 84.7694 33.0637 84.8323C33.0009 84.8952 32.938 85.0209 32.8751 85.0838C32.8123 85.2096 32.8123 85.2725 32.8123 85.3982V89.4858H31.9951V85.3982C31.9951 85.2725 31.9951 85.1467 31.9323 85.0838C31.8694 84.958 31.8065 84.8952 31.7437 84.8323C31.6808 84.7694 31.5551 84.7065 31.4922 84.6436C31.3037 84.5807 31.0522 84.5807 30.8636 84.6436C30.7379 84.7065 30.6751 84.7694 30.6122 84.8323C30.5493 84.8952 30.4865 85.0209 30.4236 85.0838C30.3608 85.2096 30.3608 85.2725 30.3608 85.3982V89.4858H29.6064V83.8261H30.3608V84.0148C30.4236 83.9519 30.4865 83.9519 30.5493 83.9519C31.0522 83.7632 31.618 83.7632 32.058 84.0148C32.1837 84.0777 32.3723 84.2034 32.4351 84.3292C32.5608 84.2034 32.6866 84.0777 32.8123 84.0148C33.2523 83.7632 33.818 83.7003 34.3209 83.889C34.5095 83.9519 34.6981 84.0776 34.8238 84.2663C34.9495 84.3921 35.0752 84.5807 35.201 84.7694C35.2638 84.958 35.3267 85.2096 35.3267 85.3982V89.4858H35.201Z" fill="#081D31"/>
<path d="M40.7958 85.4612C40.7958 85.2726 40.733 85.0839 40.6701 84.8953C40.6073 84.7066 40.4815 84.5809 40.3558 84.4551C40.2301 84.3293 40.1044 84.2035 39.9158 84.1407C39.7272 84.0778 39.5386 84.0149 39.3501 84.0149C39.1615 84.0149 38.9729 84.0778 38.7843 84.1407C38.5958 84.2035 38.47 84.3293 38.2815 84.518V84.0778H37.9043V85.4612V87.9138V91.624H38.3443V88.8571C38.47 88.9828 38.6586 89.1086 38.8472 89.2344C39.0358 89.2973 39.2244 89.3601 39.4129 89.3601C39.6015 89.3601 39.7901 89.2973 39.9787 89.2344C40.1672 89.1715 40.293 89.0457 40.4187 88.9199C40.5444 88.7942 40.6701 88.6684 40.733 88.4797C40.7958 88.2911 40.8587 88.1024 40.8587 87.9138V85.4612H40.7958ZM40.4815 87.9138C40.4815 88.0396 40.4815 88.2282 40.4187 88.354C40.3558 88.4797 40.293 88.6055 40.1672 88.6684C40.0415 88.7942 39.9787 88.8571 39.8529 88.9199C39.7272 88.9828 39.6015 88.9828 39.4129 88.9828C39.2872 88.9828 39.0986 88.9828 38.9729 88.9199C38.8472 88.8571 38.7215 88.7942 38.6586 88.6684C38.5329 88.5426 38.47 88.4797 38.4072 88.354C38.3443 88.2282 38.3443 88.1024 38.3443 87.9138V85.4612C38.3443 85.3355 38.3443 85.1468 38.4072 85.0211C38.47 84.8953 38.5329 84.7695 38.6586 84.7066C38.7843 84.5809 38.8472 84.518 38.9729 84.4551C39.0986 84.3922 39.2244 84.3922 39.4129 84.3922C39.5387 84.3922 39.7272 84.3922 39.8529 84.4551C39.9787 84.518 40.1044 84.5809 40.1672 84.7066C40.2301 84.8324 40.3558 84.8953 40.4187 85.0211C40.4815 85.1468 40.4815 85.2726 40.4815 85.4612V87.9138Z" fill="#081D31"/>
<path d="M38.5326 91.8754H37.7783V83.889H38.5326V84.0777C38.5955 84.0148 38.6584 84.0148 38.7212 84.0148C39.0984 83.8261 39.6013 83.8261 40.0413 84.0148C40.2299 84.0777 40.4184 84.2034 40.5441 84.3921C40.6699 84.5179 40.7956 84.7065 40.9213 84.8952C40.9842 85.0838 41.047 85.3354 41.047 85.524V87.9765C41.047 88.2281 40.9842 88.4167 40.9213 88.6054C40.8584 88.7941 40.7327 88.9827 40.5441 89.1085C40.4184 89.2343 40.2299 89.36 40.0413 89.4858C39.6013 89.6745 39.0984 89.6745 38.7212 89.4858C38.6584 89.4858 38.5955 89.4229 38.5326 89.4229V91.8754ZM39.4127 84.5807C39.287 84.5807 39.1612 84.5808 39.0984 84.6436C38.9727 84.7065 38.9098 84.7694 38.8469 84.8323C38.7841 84.8952 38.7212 85.0209 38.6584 85.0838C38.5955 85.2096 38.5955 85.2725 38.5955 85.3983V87.8508C38.5955 87.9765 38.5955 88.1023 38.6584 88.1652C38.7212 88.291 38.7841 88.3539 38.8469 88.4168C38.9098 88.4796 39.0355 88.5425 39.0984 88.6054C39.287 88.6683 39.5384 88.6683 39.727 88.6054C39.8527 88.5425 39.9156 88.4796 39.9784 88.4168C40.0413 88.3539 40.1041 88.2281 40.167 88.1652C40.2299 88.0394 40.2298 87.9765 40.2298 87.8508V85.3983C40.2298 85.2725 40.2299 85.1467 40.167 85.0838C40.1041 84.9581 40.0413 84.8952 39.9784 84.8323C39.9156 84.7694 39.7898 84.7065 39.727 84.6436C39.6013 84.6436 39.5384 84.5807 39.4127 84.5807Z" fill="#081D31"/>
<path d="M46.2015 84.4551C46.0758 84.3293 45.9501 84.2035 45.7615 84.1407C45.5729 84.0778 45.3844 84.0149 45.1958 84.0149C45.0072 84.0149 44.8186 84.0778 44.63 84.1407C44.4415 84.2035 44.3157 84.3293 44.19 84.4551C44.0643 84.5809 43.9386 84.7066 43.8757 84.8953C43.8129 85.0839 43.75 85.2726 43.75 85.4612V87.9138C43.75 88.1024 43.8129 88.2911 43.8757 88.4797C43.9386 88.6684 44.0643 88.7942 44.19 88.9199C44.3157 89.0457 44.4415 89.1715 44.63 89.2344C44.8186 89.2973 45.0072 89.3601 45.1958 89.3601C45.3844 89.3601 45.5729 89.2973 45.7615 89.2344C45.9501 89.1715 46.0758 89.0457 46.2015 88.9199C46.3273 88.7942 46.453 88.6684 46.5158 88.4797C46.5787 88.2911 46.6415 88.1024 46.6415 87.9138V85.4612C46.6415 85.2726 46.5787 85.0839 46.5158 84.8953C46.453 84.7066 46.3273 84.5809 46.2015 84.4551ZM46.2644 87.9138C46.2644 88.0396 46.2644 88.2282 46.2015 88.354C46.1387 88.4797 46.0758 88.6055 45.9501 88.6684C45.8244 88.7942 45.7615 88.8571 45.6358 88.9199C45.5101 88.9828 45.3844 88.9828 45.1958 88.9828C45.0701 88.9828 44.8815 88.9828 44.7558 88.9199C44.63 88.8571 44.5043 88.7942 44.4415 88.6684C44.3157 88.5426 44.2529 88.4797 44.19 88.354C44.1272 88.2282 44.1272 88.1024 44.1272 87.9138V85.4612C44.1272 85.3355 44.1272 85.1468 44.19 85.0211C44.2529 84.8953 44.3157 84.7695 44.4415 84.7066C44.5672 84.5809 44.63 84.518 44.7558 84.4551C44.8815 84.3922 45.0072 84.3922 45.1958 84.3922C45.3215 84.3922 45.5101 84.3922 45.6358 84.4551C45.7615 84.518 45.8872 84.5809 45.9501 84.7066C46.013 84.8324 46.1387 84.8953 46.2015 85.0211C46.2644 85.1468 46.2644 85.2726 46.2644 85.4612V87.9138Z" fill="#081D31"/>
<path d="M45.1959 89.5486C44.9444 89.5486 44.7559 89.4857 44.5673 89.4228C44.3787 89.3599 44.1901 89.2342 44.0644 89.0455C43.9387 88.9197 43.813 88.7311 43.6872 88.5424C43.6244 88.3538 43.5615 88.1022 43.5615 87.9136V85.461C43.5615 85.2095 43.6244 85.0208 43.6872 84.8322C43.7501 84.6435 43.8758 84.4549 44.0644 84.3291C44.1901 84.2033 44.3787 84.0776 44.5673 83.9518C44.9444 83.7631 45.4473 83.7631 45.8245 83.9518C46.0131 84.0147 46.2016 84.1405 46.3273 84.3291C46.4531 84.4549 46.5788 84.6435 46.7045 84.8322C46.7674 85.0208 46.8302 85.2724 46.8302 85.461V87.9136C46.8302 88.1651 46.7674 88.3538 46.7045 88.5424C46.6416 88.7311 46.5159 88.9197 46.3273 89.0455C46.2016 89.1713 46.0131 89.297 45.8245 89.4228C45.6359 89.4857 45.4473 89.5486 45.1959 89.5486ZM45.1959 84.5806C45.0702 84.5806 44.9444 84.5806 44.8816 84.6435C44.7559 84.7064 44.693 84.7693 44.6301 84.8322C44.5673 84.8951 44.5044 85.0208 44.4416 85.0837C44.3787 85.2095 44.3787 85.2724 44.3787 85.3982V87.8507C44.3787 87.9764 44.3787 88.1022 44.4416 88.1651C44.5044 88.2909 44.5673 88.3538 44.6301 88.4166C44.693 88.4795 44.8187 88.5424 44.8816 88.6053C45.0702 88.6682 45.3216 88.6682 45.5102 88.6053C45.6359 88.5424 45.6988 88.4795 45.7616 88.4166C45.8245 88.3538 45.8873 88.228 45.9502 88.1651C46.013 88.0393 46.013 87.9764 46.013 87.8507V85.3982C46.013 85.2724 46.013 85.1466 45.9502 85.0837C45.8873 85.0208 45.8245 84.8951 45.7616 84.8322C45.6988 84.7693 45.573 84.7064 45.5102 84.6435C45.4473 84.6435 45.3216 84.5806 45.1959 84.5806Z" fill="#081D31"/>
<path d="M51.0425 89.3601C51.231 89.3601 51.4196 89.2973 51.6082 89.2344C51.7968 89.1715 51.9225 89.0457 52.0482 88.9199C52.1739 88.7942 52.2997 88.6684 52.3625 88.4797C52.4254 88.2911 52.4882 88.1024 52.4882 87.9138C52.4882 87.7251 52.4254 87.5994 52.3625 87.4107C52.2997 87.2849 52.1739 87.1592 52.0482 87.0334C51.9225 86.9076 51.7968 86.8447 51.6082 86.719C51.4196 86.6561 51.2939 86.5303 51.1682 86.4674C51.0425 86.4045 50.8539 86.3416 50.7282 86.2788C50.6024 86.2159 50.4767 86.153 50.351 86.0272C50.2253 85.9643 50.1624 85.8386 50.0996 85.7757C50.0367 85.6499 49.9738 85.587 49.9738 85.4612C49.9738 85.3355 49.9738 85.1468 50.0367 85.0211C50.0996 84.8953 50.1624 84.7695 50.2881 84.7066C50.4139 84.5809 50.4767 84.518 50.6024 84.4551C50.7282 84.3922 50.8539 84.3922 51.0425 84.3922C51.1682 84.3922 51.3568 84.3922 51.4825 84.4551C51.6082 84.518 51.7339 84.5809 51.7968 84.7066C51.9225 84.8324 51.9854 84.8953 52.0482 85.0211C52.1111 85.1468 52.1111 85.2726 52.1111 85.4612H52.4882C52.4882 85.2726 52.4254 85.0839 52.3625 84.8953C52.2997 84.7066 52.1739 84.5809 52.0482 84.4551C51.9225 84.3293 51.7968 84.2035 51.6082 84.1407C51.4196 84.0778 51.231 84.0149 51.0425 84.0149C50.8539 84.0149 50.6653 84.0778 50.4767 84.1407C50.2881 84.2035 50.1624 84.3293 50.0367 84.4551C49.911 84.5809 49.7853 84.7066 49.7224 84.8953C49.6595 85.0839 49.5967 85.2726 49.5967 85.4612C49.5967 85.6499 49.6595 85.7757 49.7224 85.9643C49.7853 86.0901 49.911 86.2159 50.0367 86.3416C50.1624 86.4674 50.2881 86.5303 50.4767 86.6561C50.6653 86.719 50.791 86.8447 50.9796 86.9076C51.1053 86.9705 51.2939 87.0334 51.4196 87.1592C51.5453 87.222 51.6711 87.2849 51.7968 87.4107C51.9225 87.4736 51.9854 87.5993 52.0482 87.6622C52.1111 87.788 52.1739 87.8509 52.1739 87.9767C52.1739 88.1024 52.1739 88.2911 52.1111 88.4169C52.0482 88.5426 51.9853 88.6684 51.8596 88.7313C51.7339 88.8571 51.6711 88.9199 51.5453 88.9828C51.4196 89.0457 51.2939 89.0457 51.1053 89.0457C50.9796 89.0457 50.791 89.0457 50.6653 88.9828C50.5396 88.9199 50.4139 88.8571 50.351 88.7313C50.2253 88.6055 50.1624 88.5426 50.0996 88.4169C50.0367 88.2911 50.0367 88.1653 50.0367 87.9767H49.6595C49.6595 88.1653 49.7224 88.354 49.7853 88.5426C49.8481 88.7313 49.9738 88.8571 50.0996 88.9828C50.2253 89.1086 50.351 89.2344 50.5396 89.2973C50.6653 89.2973 50.8539 89.3601 51.0425 89.3601Z" fill="#081D31"/>
<path d="M51.0419 89.5487C50.7905 89.5487 50.6019 89.4858 50.4133 89.423C50.2248 89.3601 50.0362 89.2343 49.9105 89.0456C49.7847 88.9199 49.659 88.7312 49.5333 88.5426C49.4704 88.3539 49.4076 88.1024 49.4076 87.9137V87.7251H50.1619V87.9137C50.1619 88.0395 50.1619 88.1653 50.2248 88.2281C50.2876 88.3539 50.3505 88.4168 50.4133 88.4797C50.4762 88.5426 50.6019 88.6054 50.6648 88.6683C50.8534 88.7312 51.1048 88.7312 51.2934 88.6683C51.4191 88.6054 51.482 88.5426 51.5448 88.4797C51.6077 88.4168 51.6705 88.291 51.7334 88.2281C51.7963 88.1024 51.7963 88.0395 51.7963 87.9137C51.7963 87.8508 51.7963 87.725 51.7334 87.6622C51.6705 87.5993 51.6077 87.5364 51.5448 87.4106C51.4191 87.3477 51.3562 87.2849 51.2305 87.222C51.1048 87.1591 50.9791 87.0962 50.7905 86.9704C50.6019 86.9075 50.4762 86.7818 50.2876 86.7189C50.099 86.5931 49.9733 86.5302 49.8476 86.4045C49.7219 86.2787 49.5962 86.1529 49.4704 85.9643C49.3447 85.7756 49.3447 85.587 49.3447 85.3983C49.3447 85.1468 49.4076 84.9581 49.4704 84.7694C49.5333 84.5808 49.659 84.3921 49.8476 84.2664C49.9733 84.1406 50.1619 84.0148 50.3505 83.8891C50.7276 83.7004 51.2305 83.7004 51.6077 83.8891C51.7963 83.9519 51.9848 84.0777 52.1106 84.2664C52.2363 84.3921 52.362 84.5808 52.4877 84.7694C52.5506 84.9581 52.6134 85.2096 52.6134 85.3983V85.587H51.8591V85.3983C51.8591 85.2725 51.8591 85.1468 51.7963 85.0839C51.7334 84.9581 51.6705 84.8952 51.6077 84.8323C51.5448 84.7694 51.4191 84.7066 51.3562 84.6437C51.1677 84.5808 50.9162 84.5808 50.7276 84.6437C50.6019 84.7066 50.5391 84.7694 50.4762 84.8323C50.4133 84.8952 50.3505 85.021 50.2876 85.0839C50.2248 85.2096 50.2248 85.2725 50.2248 85.3983C50.2248 85.4612 50.2248 85.587 50.2876 85.6498C50.3505 85.7127 50.4133 85.7756 50.4762 85.9014C50.6019 85.9643 50.6648 86.0271 50.7905 86.09C50.9162 86.1529 51.0419 86.2158 51.2305 86.2787C51.4191 86.3416 51.5448 86.4674 51.7334 86.5302C51.922 86.656 52.0477 86.7189 52.1734 86.8447C52.2991 86.9704 52.4248 87.0962 52.5506 87.2849C52.6763 87.4735 52.6763 87.6622 52.6763 87.8508C52.6763 88.1024 52.6134 88.291 52.5506 88.4797C52.4877 88.6683 52.362 88.857 52.1734 88.9828C52.0477 89.1085 51.8591 89.2343 51.6705 89.3601C51.482 89.4858 51.2305 89.5487 51.0419 89.5487Z" fill="#081D31"/>
<path d="M57.3908 89.2343C57.5794 89.1714 57.7051 89.0456 57.8937 88.857V89.2972H58.2708V87.9137V86.656V85.3983C58.2708 85.2096 58.208 85.021 58.1451 84.8323C58.0822 84.6436 57.9565 84.5179 57.8937 84.3921C57.7679 84.2663 57.6422 84.1406 57.4536 84.0777C57.2651 84.0148 57.1393 83.9519 56.8879 83.9519C56.6993 83.9519 56.5107 84.0148 56.3222 84.0777C56.1336 84.1406 56.0079 84.2663 55.8821 84.3921C55.7564 84.5179 55.6307 84.6436 55.5678 84.8323C55.505 85.021 55.4421 85.2096 55.4421 85.3983H55.8193C55.8193 85.2725 55.8193 85.0838 55.8821 84.9581C55.945 84.8323 56.0079 84.7065 56.1336 84.6436C56.2593 84.5179 56.3222 84.455 56.4479 84.3921C56.5736 84.3292 56.6993 84.3292 56.8879 84.3292C57.2022 84.3292 57.3908 84.455 57.5794 84.6436C57.7679 84.8323 57.8308 85.0838 57.8308 85.3983V85.9642C57.7679 86.0271 57.6422 86.0271 57.4536 86.09C57.2651 86.1529 57.1393 86.2158 56.9508 86.2787C56.7622 86.3415 56.6365 86.4044 56.4479 86.4673C56.3222 86.5302 56.1964 86.5931 56.1336 86.5931C55.5678 86.7817 55.3164 87.0962 55.3164 87.5364V87.8508C55.3164 88.0395 55.3793 88.2281 55.4421 88.4168C55.505 88.6054 55.6307 88.7312 55.7564 88.857C55.8821 88.9827 56.0079 89.1085 56.1964 89.1714C56.385 89.2343 56.5736 89.2972 56.7622 89.2972C57.0136 89.3601 57.2022 89.2972 57.3908 89.2343ZM56.0707 88.6683C55.945 88.5425 55.8821 88.4797 55.8193 88.3539C55.7564 88.2281 55.7564 88.1023 55.7564 87.9137V87.5993C55.7564 87.4106 55.8193 87.2848 55.945 87.2219C56.0707 87.0962 56.1964 87.0333 56.3222 86.9704C56.385 86.9704 56.4479 86.9075 56.5736 86.8446C56.6993 86.7818 56.825 86.7189 57.0136 86.656C57.1393 86.5931 57.3279 86.5302 57.4536 86.4673C57.5794 86.4044 57.7679 86.3416 57.8308 86.3416V86.5931V87.8508C57.8308 87.9766 57.8308 88.1652 57.7679 88.291C57.7051 88.4168 57.6422 88.5425 57.5165 88.6054C57.3908 88.7312 57.3279 88.7941 57.2022 88.857C57.0765 88.9199 56.9508 88.9198 56.7622 88.9198C56.6365 88.9198 56.4479 88.9199 56.3222 88.857C56.2593 88.857 56.1336 88.7941 56.0707 88.6683Z" fill="#081D31"/>
<path d="M56.8248 89.5487C56.5733 89.5487 56.3848 89.4858 56.1962 89.423C56.0076 89.3601 55.819 89.2343 55.6933 89.0456C55.5676 88.9199 55.4419 88.7312 55.3161 88.5426C55.2533 88.3539 55.1904 88.1024 55.1904 87.9137V87.5993C55.1904 87.222 55.379 86.7189 56.1333 86.4673C56.1962 86.4673 56.3219 86.4045 56.4476 86.3416C56.5733 86.2787 56.7619 86.2158 56.9505 86.1529C57.1391 86.09 57.2648 86.0272 57.4534 85.9643C57.5162 85.9014 57.642 85.9014 57.7048 85.9014V85.4612C57.7048 85.2096 57.642 85.021 57.5162 84.8323C57.3905 84.6437 57.2019 84.5808 56.9505 84.5808C56.8248 84.5808 56.6991 84.5808 56.6362 84.6437C56.5105 84.7066 56.4476 84.7694 56.3848 84.8323C56.3219 84.8952 56.259 85.021 56.1962 85.0839C56.1333 85.2096 56.1333 85.2725 56.1333 85.3983V85.587H55.379V85.3983C55.379 85.1468 55.4419 84.9581 55.5047 84.7694C55.5676 84.5808 55.6933 84.3921 55.8819 84.2664C56.0076 84.1406 56.1962 84.0148 56.3848 83.8891C56.7619 83.7004 57.2648 83.7004 57.642 83.8891C57.8305 83.9519 58.0191 84.0777 58.1448 84.2664C58.2706 84.3921 58.3963 84.5808 58.4591 84.7694C58.522 84.9581 58.5848 85.2096 58.5848 85.3983V89.4858H57.8305V89.2972C57.7677 89.3601 57.7048 89.3601 57.642 89.3601C57.2648 89.4858 57.0134 89.5487 56.8248 89.5487ZM57.642 86.7189C57.642 86.7189 57.5791 86.7189 57.5162 86.7818C57.3905 86.8447 57.2019 86.9075 57.0762 86.9704L56.3848 87.222C56.259 87.2849 56.1333 87.3477 56.0705 87.4106C56.0076 87.4735 55.9447 87.5364 55.9447 87.6622V87.9766C55.9447 88.1024 55.9447 88.2281 56.0076 88.291C56.0705 88.4168 56.1333 88.4797 56.1962 88.5426C56.259 88.6054 56.3848 88.6683 56.4476 88.7312C56.6362 88.7941 56.8876 88.7941 57.0762 88.7312C57.2019 88.6683 57.2648 88.6054 57.3277 88.5426C57.3905 88.4797 57.4534 88.3539 57.5162 88.291C57.5791 88.1652 57.5791 88.1024 57.5791 87.9766V86.7189H57.642Z" fill="#081D31"/>
<path d="M63.6146 84.4551C63.4889 84.3293 63.3632 84.2035 63.1746 84.1407C62.986 84.0778 62.7974 84.0149 62.6089 84.0149C62.4203 84.0149 62.2317 84.0778 62.0431 84.1407C61.8545 84.2035 61.7288 84.3293 61.5402 84.518V84.0778H61.1631V85.4612V86.719V89.2973H61.5402V86.719V85.4612C61.5402 85.3355 61.5402 85.1468 61.6031 85.0211C61.666 84.8953 61.7288 84.7695 61.8545 84.7066C61.9803 84.5809 62.0431 84.518 62.1688 84.4551C62.2946 84.3922 62.4203 84.3922 62.6089 84.3922C62.7346 84.3922 62.9232 84.3922 63.0489 84.4551C63.1746 84.518 63.3003 84.5809 63.3632 84.7066C63.4889 84.8324 63.5517 84.8953 63.6146 85.0211C63.6775 85.1468 63.6775 85.2726 63.6775 85.4612V86.719V89.2973H64.0546V86.719V85.4612C64.0546 85.2726 63.9918 85.0839 63.9289 84.8953C63.866 84.7066 63.7403 84.5809 63.6146 84.4551Z" fill="#081D31"/>
<path d="M64.2423 89.4857H63.488V85.3982C63.488 85.2724 63.488 85.1466 63.4252 85.0837C63.3623 84.958 63.2994 84.8951 63.2366 84.8322C63.1737 84.7693 63.048 84.7064 62.9851 84.6435C62.7966 84.5807 62.5451 84.5807 62.3565 84.6435C62.2308 84.7064 62.168 84.7693 62.1051 84.8322C62.0422 84.8951 61.9794 85.0208 61.9165 85.0837C61.8537 85.2095 61.8537 85.2724 61.8537 85.3982V89.4857H60.9736V83.826H61.7279V84.0147C61.7908 83.9518 61.8537 83.9518 61.9165 83.9518C62.2937 83.7631 62.7966 83.7631 63.2366 83.9518C63.4252 84.0147 63.6137 84.1405 63.7395 84.3291C63.8652 84.4549 63.9909 84.6435 64.1166 84.8322C64.1795 85.0208 64.2423 85.2724 64.2423 85.461V89.4857Z" fill="#081D31"/>
<path d="M67.3853 88.9198C67.511 89.0455 67.6368 89.1713 67.7625 89.2342C67.8882 89.2971 68.0768 89.36 68.2654 89.36V88.9827C68.1396 88.9827 68.0139 88.9827 67.8882 88.9198C67.7625 88.8569 67.6996 88.794 67.5739 88.6682C67.511 88.5425 67.4482 88.4796 67.3853 88.3538C67.3225 88.228 67.3225 88.1023 67.3225 87.9136V86.6559V84.392H68.4539V84.0147H67.3225V82.5684H66.9453V84.0147V84.392V86.6559V87.9136C66.9453 88.1023 67.0082 88.2909 67.071 88.4796C67.1967 88.6682 67.2596 88.794 67.3853 88.9198Z" fill="#081D31"/>
<path d="M68.5175 89.5488H68.3289C68.1404 89.5488 67.9518 89.4859 67.7632 89.423C67.5746 89.3602 67.4489 89.2344 67.2603 89.0457C67.1346 88.92 67.0089 88.7313 66.946 88.5426C66.8832 88.354 66.8203 88.1024 66.8203 87.9138V82.3799H67.5746V83.8262H68.7061V84.5809H67.5746V87.8509C67.5746 87.9767 67.5746 88.1024 67.6375 88.1653C67.7003 88.2911 67.7003 88.354 67.8261 88.4169C67.8889 88.4798 67.9518 88.5426 68.0775 88.6055C68.1404 88.6684 68.2661 88.6684 68.3289 88.6684H68.5175V89.5488Z" fill="#081D31"/>
<path d="M73.4828 84.4551C73.3571 84.3293 73.2313 84.2035 73.0428 84.1407C72.8542 84.0778 72.6656 84.0149 72.477 84.0149C72.2885 84.0149 72.0999 84.0778 71.9113 84.1407C71.7227 84.2035 71.597 84.3293 71.4713 84.4551C71.3455 84.5809 71.2198 84.7066 71.157 84.8953C71.0941 85.0839 71.0312 85.2726 71.0312 85.4612V87.9138C71.0312 88.1024 71.0941 88.2911 71.157 88.4797C71.2198 88.6684 71.3455 88.7942 71.4713 88.9199C71.597 89.0457 71.7227 89.1715 71.9113 89.2344C72.0999 89.2973 72.2885 89.3601 72.477 89.3601C72.6656 89.3601 72.8542 89.2973 73.0428 89.2344C73.2313 89.1715 73.3571 89.0457 73.4828 88.9199C73.6085 88.7942 73.7342 88.6684 73.7971 88.4797C73.8599 88.2911 73.9228 88.1024 73.9228 87.9138V85.4612C73.9228 85.2726 73.8599 85.0839 73.7971 84.8953C73.7342 84.7066 73.6085 84.5809 73.4828 84.4551ZM73.5456 87.9138C73.5456 88.0396 73.5456 88.2282 73.4828 88.354C73.4199 88.4797 73.3571 88.6055 73.2313 88.6684C73.1056 88.7942 73.0428 88.8571 72.917 88.9199C72.7913 88.9828 72.6656 88.9828 72.477 88.9828C72.3513 88.9828 72.1627 88.9828 72.037 88.9199C71.9113 88.8571 71.7856 88.7942 71.7227 88.6684C71.597 88.5426 71.5341 88.4797 71.4713 88.354C71.4084 88.2282 71.4084 88.1024 71.4084 87.9138V85.4612C71.4084 85.3355 71.4084 85.1468 71.4713 85.0211C71.5341 84.8953 71.597 84.7695 71.7227 84.7066C71.8484 84.5809 71.9113 84.518 72.037 84.4551C72.1627 84.3922 72.2885 84.3922 72.477 84.3922C72.6028 84.3922 72.7913 84.3922 72.917 84.4551C73.0428 84.518 73.1685 84.5809 73.2313 84.7066C73.2942 84.8324 73.4199 84.8953 73.4828 85.0211C73.5456 85.1468 73.5456 85.2726 73.5456 85.4612V87.9138Z" fill="#081D31"/>
<path d="M72.4771 89.5486C72.2257 89.5486 72.0371 89.4857 71.8485 89.4228C71.66 89.3599 71.4714 89.2342 71.3457 89.0455C71.2199 88.9197 71.0942 88.7311 70.9685 88.5424C70.9056 88.3538 70.8428 88.1022 70.8428 87.9136V85.461C70.8428 85.2095 70.9056 85.0208 70.9685 84.8322C71.0314 84.6435 71.1571 84.4549 71.3457 84.3291C71.4714 84.2033 71.66 84.0776 71.8485 83.9518C72.2257 83.7631 72.7286 83.7631 73.1057 83.9518C73.2943 84.0147 73.4829 84.1405 73.6086 84.3291C73.7343 84.4549 73.8601 84.6435 73.9858 84.8322C74.0486 85.0208 74.1115 85.2724 74.1115 85.461V87.9136C74.1115 88.1651 74.0486 88.3538 73.9858 88.5424C73.9229 88.7311 73.7972 88.9197 73.6086 89.0455C73.4829 89.1713 73.2943 89.297 73.1057 89.4228C72.9172 89.4857 72.7286 89.5486 72.4771 89.5486ZM72.4771 84.5806C72.3514 84.5806 72.2257 84.5806 72.1628 84.6435C72.0371 84.7064 71.9743 84.7693 71.9114 84.8322C71.8485 84.8951 71.7857 85.0208 71.7228 85.0837C71.66 85.2095 71.66 85.2724 71.66 85.3982V87.8507C71.66 87.9764 71.66 88.1022 71.7228 88.1651C71.7857 88.2909 71.8485 88.3538 71.9114 88.4166C71.9743 88.4795 72.1 88.5424 72.1628 88.6053C72.3514 88.6682 72.6029 88.6682 72.7914 88.6053C72.9172 88.5424 72.98 88.4795 73.0429 88.4166C73.1057 88.3538 73.1686 88.228 73.2315 88.1651C73.2943 88.0393 73.2943 87.9764 73.2943 87.8507V85.3982C73.2943 85.2724 73.2943 85.1466 73.2315 85.0837C73.1686 84.958 73.1057 84.8951 73.0429 84.8322C72.98 84.7693 72.8543 84.7064 72.7914 84.6435C72.7286 84.6435 72.6029 84.5806 72.4771 84.5806Z" fill="#081D31"/>
<path d="M80.7744 82.1282V89.2971H81.1516H83.5402V88.9198H81.1516V85.524H83.1002V85.2096H81.1516V82.5055H83.5402V82.1282H81.1516H80.7744Z" fill="#081D31"/>
<path d="M83.7918 89.4859H80.5859V81.9397H83.7918V82.6943H81.3403V84.9582H83.3518V85.7757H81.3403V88.7313H83.7918V89.4859Z" fill="#081D31"/>
<path d="M86.7467 85.0211C86.8095 84.8953 86.8724 84.7695 86.9981 84.7066C87.1238 84.5809 87.1867 84.518 87.3124 84.4551C87.4381 84.3922 87.5638 84.3922 87.7524 84.3922C87.8781 84.3922 88.0667 84.3922 88.1924 84.4551C88.3181 84.518 88.4439 84.5809 88.5067 84.7066C88.6324 84.8324 88.6953 84.8953 88.7582 85.0211C88.821 85.1468 88.821 85.2726 88.821 85.4612H89.1982C89.1982 85.2726 89.1353 85.0839 89.0725 84.8953C89.0096 84.7066 88.8839 84.5809 88.7582 84.4551C88.6324 84.3293 88.5067 84.2035 88.3181 84.1407C88.1296 84.0778 87.941 84.0149 87.7524 84.0149C87.5638 84.0149 87.3752 84.0778 87.1867 84.1407C86.9981 84.2035 86.8724 84.3293 86.7467 84.4551C86.6209 84.5809 86.4952 84.7066 86.4324 84.8953C86.3695 85.0839 86.3066 85.2726 86.3066 85.4612V87.9138C86.3066 88.1024 86.3695 88.2911 86.4324 88.4797C86.4952 88.6684 86.6209 88.7942 86.7467 88.9199C86.8724 89.0457 86.9981 89.1715 87.1867 89.2344C87.3752 89.2973 87.5638 89.3601 87.7524 89.3601C87.941 89.3601 88.1296 89.2973 88.3181 89.2344C88.5067 89.1715 88.6324 89.0457 88.7582 88.9199C88.8839 88.7942 89.0096 88.6684 89.0725 88.4797C89.1353 88.2911 89.1982 88.1024 89.1982 87.9138H88.821C88.821 88.0396 88.821 88.2282 88.7582 88.354C88.6953 88.4797 88.6324 88.6055 88.5067 88.6684C88.381 88.7942 88.3181 88.8571 88.1924 88.9199C88.0667 88.9828 87.941 88.9828 87.7524 88.9828C87.6267 88.9828 87.4381 88.9828 87.3124 88.9199C87.1867 88.8571 87.0609 88.7942 86.9981 88.6684C86.8724 88.5426 86.8095 88.4797 86.7467 88.354C86.6838 88.2282 86.6838 88.1024 86.6838 87.9138V85.4612C86.6838 85.2726 86.6838 85.1468 86.7467 85.0211Z" fill="#081D31"/>
<path d="M87.7525 89.5486C87.5011 89.5486 87.3125 89.4857 87.1239 89.4228C86.9353 89.3599 86.7468 89.2342 86.621 89.0455C86.4953 88.9197 86.3696 88.7311 86.2439 88.5424C86.181 88.3538 86.1182 88.1022 86.1182 87.9136V85.461C86.1182 85.2095 86.181 85.0208 86.2439 84.8322C86.3067 84.6435 86.4325 84.4549 86.621 84.3291C86.7468 84.2033 86.9353 84.0776 87.1239 83.9518C87.5011 83.7631 88.004 83.7631 88.3811 83.9518C88.5697 84.0147 88.7583 84.1405 88.884 84.3291C89.0097 84.4549 89.1354 84.6435 89.2611 84.8322C89.324 85.0208 89.3869 85.2724 89.3869 85.461V85.6497H88.6325V85.461C88.6325 85.3353 88.6325 85.2095 88.5697 85.1466C88.5068 85.0208 88.444 84.958 88.3811 84.8951C88.3183 84.8322 88.1925 84.7693 88.1297 84.7064C87.9411 84.6435 87.6897 84.6435 87.5011 84.7064C87.3754 84.7693 87.3125 84.8322 87.2496 84.8951C87.1868 84.958 87.1239 85.0837 87.0611 85.1466C86.9982 85.2724 86.9982 85.3353 86.9982 85.461V87.9136C86.9982 88.0393 86.9982 88.1651 87.0611 88.228C87.1239 88.3538 87.1868 88.4166 87.2496 88.4795C87.3125 88.5424 87.4382 88.6053 87.5011 88.6682C87.6897 88.7311 87.9411 88.7311 88.1297 88.6682C88.2554 88.6053 88.3183 88.5424 88.3811 88.4795C88.444 88.4166 88.5068 88.2909 88.5697 88.228C88.6325 88.1022 88.6325 88.0393 88.6325 87.9136V87.7249H89.3869V87.9136C89.3869 88.1651 89.324 88.3538 89.2611 88.5424C89.1983 88.7311 89.0726 88.9197 88.884 89.0455C88.7583 89.1713 88.5697 89.297 88.3811 89.4228C88.1925 89.4857 88.004 89.5486 87.7525 89.5486Z" fill="#081D31"/>
<path d="M94.5414 84.4551C94.4156 84.3293 94.2899 84.2035 94.1013 84.1407C93.9128 84.0778 93.7242 84.0149 93.5356 84.0149C93.347 84.0149 93.1585 84.0778 92.9699 84.1407C92.7813 84.2035 92.6556 84.3293 92.5299 84.4551C92.4041 84.5809 92.2784 84.7066 92.2156 84.8953C92.1527 85.0839 92.0898 85.2726 92.0898 85.4612V87.9138C92.0898 88.1024 92.1527 88.2911 92.2156 88.4797C92.2784 88.6684 92.4041 88.7942 92.5299 88.9199C92.6556 89.0457 92.7813 89.1715 92.9699 89.2344C93.1585 89.2973 93.347 89.3601 93.5356 89.3601C93.7242 89.3601 93.9128 89.2973 94.1013 89.2344C94.2899 89.1715 94.4156 89.0457 94.5414 88.9199C94.6671 88.7942 94.7928 88.6684 94.8557 88.4797C94.9185 88.2911 94.9814 88.1024 94.9814 87.9138V85.4612C94.9814 85.2726 94.9185 85.0839 94.8557 84.8953C94.7928 84.7066 94.6671 84.5809 94.5414 84.4551ZM94.6042 87.9138C94.6042 88.0396 94.6042 88.2282 94.5414 88.354C94.4785 88.4797 94.4156 88.6055 94.2899 88.6684C94.1642 88.7942 94.1013 88.8571 93.9756 88.9199C93.8499 88.9828 93.7242 88.9828 93.5356 88.9828C93.4099 88.9828 93.2213 88.9828 93.0956 88.9199C92.9699 88.8571 92.8442 88.7942 92.7813 88.6684C92.6556 88.5426 92.5927 88.4797 92.5299 88.354C92.467 88.2282 92.467 88.1024 92.467 87.9138V85.4612C92.467 85.3355 92.467 85.1468 92.5299 85.0211C92.5927 84.8953 92.6556 84.7695 92.7813 84.7066C92.907 84.5809 92.9699 84.518 93.0956 84.4551C93.2213 84.3922 93.347 84.3922 93.5356 84.3922C93.6613 84.3922 93.8499 84.3922 93.9756 84.4551C94.1013 84.518 94.2271 84.5809 94.2899 84.7066C94.3528 84.8324 94.4785 84.8953 94.5414 85.0211C94.6042 85.1468 94.6042 85.2726 94.6042 85.4612V87.9138Z" fill="#081D31"/>
<path d="M93.5347 89.5486C93.2833 89.5486 93.0947 89.4857 92.9061 89.4228C92.7176 89.3599 92.529 89.2342 92.4033 89.0455C92.2775 88.9197 92.1518 88.7311 92.0261 88.5424C91.9632 88.3538 91.9004 88.1022 91.9004 87.9136V85.461C91.9004 85.2095 91.9632 85.0208 92.0261 84.8322C92.089 84.6435 92.2147 84.4549 92.4033 84.3291C92.529 84.2033 92.7176 84.0776 92.9061 83.9518C93.2833 83.7631 93.7862 83.7631 94.1633 83.9518C94.3519 84.0147 94.5405 84.1405 94.6662 84.3291C94.7919 84.4549 94.9176 84.6435 95.0434 84.8322C95.1062 85.0208 95.1691 85.2724 95.1691 85.461V87.9136C95.1691 88.1651 95.1062 88.3538 95.0434 88.5424C94.9805 88.7311 94.8548 88.9197 94.6662 89.0455C94.5405 89.1713 94.3519 89.297 94.1633 89.4228C93.9748 89.4857 93.7862 89.5486 93.5347 89.5486ZM93.5347 84.5806C93.409 84.5806 93.2833 84.5806 93.2204 84.6435C93.0947 84.7064 93.0319 84.7693 92.969 84.8322C92.9061 84.8951 92.8433 85.0208 92.7804 85.0837C92.7176 85.2095 92.7176 85.2724 92.7176 85.3982V87.8507C92.7176 87.9764 92.7176 88.1022 92.7804 88.1651C92.8433 88.2909 92.9061 88.3538 92.969 88.4166C93.0319 88.4795 93.1576 88.5424 93.2204 88.6053C93.409 88.6682 93.6605 88.6682 93.849 88.6053C93.9748 88.5424 94.0376 88.4795 94.1005 88.4166C94.1633 88.3538 94.2262 88.228 94.2891 88.1651C94.3519 88.0393 94.3519 87.9764 94.3519 87.8507V85.3982C94.3519 85.2724 94.3519 85.1466 94.2891 85.0837C94.2262 84.958 94.1633 84.8951 94.1005 84.8322C94.0376 84.7693 93.9119 84.7064 93.849 84.6435C93.7862 84.6435 93.6605 84.5806 93.5347 84.5806Z" fill="#081D31"/>
<path d="M98.3752 81.751H97.998V89.2972H98.3752V81.751Z" fill="#081D31"/>
<path d="M98.5014 81.4995H97.7471V89.4859H98.5014V81.4995Z" fill="#081D31"/>
<path d="M103.844 84.4551C103.718 84.3293 103.593 84.2035 103.404 84.1407C103.216 84.0778 103.027 84.0149 102.838 84.0149C102.65 84.0149 102.461 84.0778 102.273 84.1407C102.084 84.2035 101.958 84.3293 101.833 84.4551C101.707 84.5809 101.581 84.7066 101.518 84.8953C101.455 85.0839 101.393 85.2726 101.393 85.4612V87.9138C101.393 88.1024 101.455 88.2911 101.518 88.4797C101.581 88.6684 101.707 88.7942 101.833 88.9199C101.958 89.0457 102.084 89.1715 102.273 89.2344C102.461 89.2973 102.65 89.3601 102.838 89.3601C103.027 89.3601 103.216 89.2973 103.404 89.2344C103.593 89.1715 103.718 89.0457 103.844 88.9199C103.97 88.7942 104.096 88.6684 104.158 88.4797C104.221 88.2911 104.284 88.1024 104.284 87.9138V85.4612C104.284 85.2726 104.221 85.0839 104.158 84.8953C104.033 84.7066 103.97 84.5809 103.844 84.4551ZM103.907 87.9138C103.907 88.0396 103.907 88.2282 103.844 88.354C103.781 88.4797 103.718 88.6055 103.593 88.6684C103.467 88.7942 103.404 88.8571 103.278 88.9199C103.153 88.9828 103.027 88.9828 102.838 88.9828C102.713 88.9828 102.524 88.9828 102.398 88.9199C102.273 88.8571 102.147 88.7942 102.084 88.6684C101.958 88.5426 101.895 88.4797 101.833 88.354C101.77 88.2282 101.77 88.1024 101.77 87.9138V85.4612C101.77 85.3355 101.77 85.1468 101.833 85.0211C101.895 84.8953 101.958 84.7695 102.084 84.7066C102.21 84.5809 102.273 84.518 102.398 84.4551C102.524 84.3922 102.65 84.3922 102.838 84.3922C102.964 84.3922 103.153 84.3922 103.278 84.4551C103.404 84.518 103.53 84.5809 103.593 84.7066C103.656 84.8324 103.781 84.8953 103.844 85.0211C103.907 85.1468 103.907 85.2726 103.907 85.4612V87.9138Z" fill="#081D31"/>
<path d="M102.838 89.5486C102.587 89.5486 102.398 89.4857 102.21 89.4228C102.021 89.3599 101.833 89.2342 101.707 89.0455C101.581 88.9197 101.456 88.7311 101.33 88.5424C101.267 88.3538 101.204 88.1022 101.204 87.9136V85.461C101.204 85.2095 101.267 85.0208 101.33 84.8322C101.393 84.6435 101.518 84.4549 101.707 84.3291C101.833 84.2033 102.021 84.0776 102.21 83.9518C102.587 83.7631 103.09 83.7631 103.467 83.9518C103.656 84.0147 103.844 84.1405 103.97 84.3291C104.096 84.4549 104.221 84.6435 104.347 84.8322C104.41 85.0208 104.473 85.2724 104.473 85.461V87.9136C104.473 88.1651 104.41 88.3538 104.347 88.5424C104.284 88.7311 104.159 88.9197 103.97 89.0455C103.844 89.1713 103.656 89.297 103.467 89.4228C103.278 89.4857 103.027 89.5486 102.838 89.5486ZM102.838 84.5806C102.713 84.5806 102.587 84.5806 102.524 84.6435C102.398 84.7064 102.336 84.7693 102.273 84.8322C102.21 84.8951 102.147 85.0208 102.084 85.0837C102.021 85.2095 102.021 85.2724 102.021 85.3982V87.8507C102.021 87.9764 102.021 88.1022 102.084 88.1651C102.147 88.2909 102.21 88.3538 102.273 88.4166C102.336 88.4795 102.461 88.5424 102.524 88.6053C102.713 88.6682 102.964 88.6682 103.153 88.6053C103.278 88.5424 103.341 88.4795 103.404 88.4166C103.467 88.3538 103.53 88.228 103.593 88.1651C103.656 88.0393 103.656 87.9764 103.656 87.8507V85.3982C103.656 85.2724 103.656 85.1466 103.593 85.0837C103.53 85.0208 103.467 84.8951 103.404 84.8322C103.341 84.7693 103.216 84.7064 103.153 84.6435C103.027 84.6435 102.964 84.5806 102.838 84.5806Z" fill="#081D31"/>
<path d="M103.74 82.266L101.699 82.9023L101.811 83.2626L103.852 82.6263L103.74 82.266Z" fill="#081D31"/>
<path d="M103.925 82.0069L101.465 82.7742L101.708 83.5546L104.169 82.7873L103.925 82.0069Z" fill="#081D31"/>
<path d="M109.69 84.518C109.564 84.3922 109.376 84.2664 109.187 84.1407C108.999 84.0778 108.81 84.0149 108.622 84.0149C108.433 84.0149 108.244 84.0778 108.056 84.1407C107.867 84.2035 107.742 84.3293 107.616 84.4551C107.49 84.5809 107.364 84.7066 107.301 84.8953C107.239 85.0839 107.176 85.2726 107.176 85.4612V87.9138C107.176 88.1024 107.239 88.2911 107.301 88.4797C107.364 88.6684 107.49 88.7942 107.616 88.9199C107.742 89.0457 107.867 89.1715 108.056 89.2344C108.244 89.2973 108.433 89.3601 108.622 89.3601C108.81 89.3601 108.999 89.2973 109.187 89.2344C109.376 89.1715 109.502 89.0457 109.69 88.8571V90.3034C109.69 90.4292 109.69 90.6179 109.627 90.7436C109.564 90.8694 109.502 90.9952 109.376 91.0581C109.25 91.1838 109.187 91.2467 109.062 91.3096C108.936 91.3725 108.81 91.3725 108.622 91.3725C108.496 91.3725 108.307 91.3725 108.182 91.3096C108.056 91.2467 107.93 91.1838 107.867 91.0581C107.742 90.9323 107.679 90.8694 107.616 90.7436C107.553 90.6179 107.553 90.4921 107.553 90.3034H107.176C107.176 90.4921 107.239 90.6807 107.301 90.8694C107.364 91.0581 107.49 91.1838 107.616 91.3096C107.742 91.4354 107.867 91.5611 108.056 91.624C108.244 91.6869 108.433 91.7498 108.622 91.7498C108.81 91.7498 108.999 91.6869 109.187 91.624C109.376 91.5611 109.502 91.4354 109.627 91.3096C109.753 91.1838 109.879 91.0581 109.942 90.8694C110.004 90.6807 110.067 90.4921 110.067 90.3034V87.9138V85.4612V84.0778H109.69V84.518ZM109.69 87.9138C109.69 88.0396 109.69 88.2282 109.627 88.354C109.564 88.4798 109.502 88.6055 109.376 88.6684C109.25 88.7942 109.187 88.8571 109.062 88.9199C108.936 88.9828 108.81 88.9828 108.622 88.9828C108.496 88.9828 108.307 88.9828 108.182 88.9199C108.056 88.8571 107.93 88.7942 107.867 88.6684C107.742 88.5426 107.679 88.4798 107.616 88.354C107.553 88.2282 107.553 88.1024 107.553 87.9138V85.4612C107.553 85.3355 107.553 85.1468 107.616 85.0211C107.679 84.8953 107.742 84.7695 107.867 84.7066C107.993 84.5809 108.056 84.518 108.182 84.4551C108.307 84.3922 108.433 84.3922 108.622 84.3922C108.747 84.3922 108.936 84.3922 109.062 84.4551C109.187 84.518 109.313 84.5809 109.376 84.7066C109.439 84.8324 109.564 84.8953 109.627 85.0211C109.69 85.1468 109.69 85.2726 109.69 85.4612V87.9138Z" fill="#081D31"/>
<path d="M108.621 91.9384C108.37 91.9384 108.181 91.8755 107.993 91.8126C107.804 91.7497 107.616 91.6239 107.49 91.4353C107.364 91.3095 107.238 91.1209 107.113 90.9322C107.05 90.7435 106.987 90.492 106.987 90.3034V90.1147H107.741V90.3034C107.741 90.4291 107.741 90.5549 107.804 90.6178C107.867 90.7435 107.93 90.8064 107.993 90.8693C108.056 90.9322 108.181 90.9951 108.244 91.058C108.433 91.1209 108.684 91.1209 108.873 91.058C108.999 90.9951 109.061 90.9322 109.124 90.8693C109.187 90.8064 109.25 90.6807 109.313 90.6178C109.376 90.492 109.376 90.4291 109.376 90.3034V89.2972C109.313 89.3601 109.25 89.3601 109.187 89.3601C108.747 89.5487 108.244 89.5487 107.867 89.3601C107.679 89.2972 107.49 89.1714 107.364 88.9828C107.238 88.857 107.113 88.6683 106.987 88.4797C106.924 88.291 106.861 88.0395 106.861 87.8508V85.3983C106.861 85.1468 106.924 84.9581 106.987 84.7694C107.05 84.5808 107.176 84.3921 107.364 84.2664C107.49 84.1406 107.679 84.0148 107.867 83.8891C108.307 83.7004 108.81 83.7004 109.187 83.8891C109.25 83.8891 109.313 83.9519 109.376 83.9519V83.7633H110.13V90.2405C110.13 90.492 110.067 90.6807 110.004 90.8693C109.941 91.058 109.816 91.2466 109.627 91.3724C109.501 91.4982 109.313 91.6239 109.124 91.7497C109.061 91.8755 108.873 91.9384 108.621 91.9384ZM108.621 84.5808C108.496 84.5808 108.37 84.5808 108.307 84.6437C108.181 84.7066 108.119 84.7694 108.056 84.8323C107.993 84.8952 107.93 85.021 107.867 85.0839C107.804 85.2096 107.804 85.2725 107.804 85.3983V87.8508C107.804 87.9766 107.804 88.1024 107.867 88.1652C107.93 88.291 107.993 88.3539 108.056 88.4168C108.119 88.4797 108.244 88.5426 108.307 88.6054C108.496 88.6683 108.747 88.6683 108.936 88.6054C109.061 88.5426 109.124 88.4797 109.187 88.4168C109.25 88.3539 109.313 88.2281 109.376 88.1652C109.439 88.0395 109.439 87.9766 109.439 87.8508V85.3983C109.439 85.2725 109.439 85.1468 109.376 85.0839C109.313 84.9581 109.25 84.8952 109.187 84.8323C109.124 84.7694 108.999 84.7066 108.936 84.6437C108.873 84.6437 108.747 84.5808 108.621 84.5808Z" fill="#081D31"/>
<path d="M113.085 84.0149V84.3293H113.399V89.2344H113.776V84.3293V84.0149H113.399H113.085Z" fill="#081D31"/>
<path d="M113.964 89.4229H113.21V84.5807H112.833V83.7632H113.964V89.4229Z" fill="#081D31"/>
<path d="M113.461 82.2539C113.399 82.2539 113.336 82.2539 113.273 82.3168C113.21 82.3797 113.21 82.4426 113.21 82.5054C113.21 82.5683 113.21 82.6312 113.273 82.6941C113.336 82.757 113.399 82.757 113.461 82.757C113.524 82.757 113.587 82.757 113.65 82.6941C113.713 82.6312 113.713 82.5683 113.713 82.5054C113.713 82.4426 113.713 82.3797 113.65 82.3168C113.65 82.3168 113.587 82.2539 113.461 82.2539Z" fill="#081D31"/>
<path d="M113.461 83.0087C113.336 83.0087 113.21 82.9458 113.147 82.8829C113.084 82.82 113.021 82.6942 113.021 82.5685C113.021 82.4427 113.084 82.3169 113.147 82.254C113.336 82.0654 113.65 82.0654 113.839 82.254C113.964 82.3169 113.964 82.4427 113.964 82.6313C113.964 82.7571 113.902 82.8829 113.839 83.0087C113.713 82.9458 113.587 83.0087 113.461 83.0087Z" fill="#081D31"/>
<path d="M117.296 85.0211C117.359 84.8953 117.422 84.7695 117.548 84.7066C117.674 84.5809 117.736 84.518 117.862 84.4551C117.988 84.3922 118.114 84.3922 118.302 84.3922C118.428 84.3922 118.617 84.3922 118.742 84.4551C118.868 84.518 118.994 84.5809 119.057 84.7066C119.182 84.8324 119.245 84.8953 119.308 85.0211C119.371 85.1468 119.371 85.2726 119.371 85.4612H119.748C119.748 85.2726 119.685 85.0839 119.622 84.8953C119.559 84.7066 119.434 84.5809 119.308 84.4551C119.182 84.3293 119.057 84.2035 118.868 84.1407C118.679 84.0778 118.491 84.0149 118.302 84.0149C118.114 84.0149 117.925 84.0778 117.736 84.1407C117.548 84.2035 117.422 84.3293 117.296 84.4551C117.171 84.5809 117.045 84.7066 116.982 84.8953C116.919 85.0839 116.856 85.2726 116.856 85.4612V87.9138C116.856 88.1024 116.919 88.2911 116.982 88.4797C117.045 88.6684 117.171 88.7942 117.296 88.9199C117.422 89.0457 117.548 89.1715 117.736 89.2344C117.925 89.2973 118.114 89.3601 118.302 89.3601C118.491 89.3601 118.679 89.2973 118.868 89.2344C119.057 89.1715 119.182 89.0457 119.308 88.9199C119.434 88.7942 119.559 88.6684 119.622 88.4797C119.685 88.2911 119.748 88.1024 119.748 87.9138H119.371C119.371 88.0396 119.371 88.2282 119.308 88.354C119.245 88.4797 119.182 88.6055 119.057 88.6684C118.931 88.7942 118.868 88.8571 118.742 88.9199C118.617 88.9828 118.491 88.9828 118.302 88.9828C118.176 88.9828 117.988 88.9828 117.862 88.9199C117.736 88.8571 117.611 88.7942 117.548 88.6684C117.422 88.5426 117.359 88.4797 117.296 88.354C117.234 88.2282 117.234 88.1024 117.234 87.9138V85.4612C117.171 85.2726 117.234 85.1468 117.296 85.0211Z" fill="#081D31"/>
<path d="M118.239 89.5486C117.987 89.5486 117.799 89.4857 117.61 89.4228C117.422 89.3599 117.233 89.2342 117.107 89.0455C116.982 88.9197 116.856 88.7311 116.73 88.5424C116.667 88.3538 116.604 88.1022 116.604 87.9136V85.461C116.604 85.2095 116.667 85.0208 116.73 84.8322C116.793 84.6435 116.919 84.4549 117.107 84.3291C117.233 84.2033 117.422 84.0776 117.61 83.9518C117.987 83.7631 118.49 83.7631 118.867 83.9518C119.056 84.0147 119.245 84.1405 119.37 84.3291C119.496 84.4549 119.622 84.6435 119.747 84.8322C119.81 85.0208 119.873 85.2724 119.873 85.461V85.6497H119.119V85.461C119.119 85.3353 119.119 85.2095 119.056 85.1466C118.993 85.0208 118.93 84.958 118.867 84.8951C118.805 84.8322 118.679 84.7693 118.616 84.7064C118.427 84.6435 118.176 84.6435 117.987 84.7064C117.862 84.7693 117.799 84.8322 117.736 84.8951C117.673 84.958 117.61 85.0837 117.547 85.1466C117.485 85.2724 117.485 85.3353 117.485 85.461V87.9136C117.485 88.0393 117.485 88.1651 117.547 88.228C117.61 88.3538 117.673 88.4166 117.736 88.4795C117.799 88.5424 117.925 88.6053 117.987 88.6682C118.176 88.7311 118.427 88.7311 118.616 88.6682C118.742 88.6053 118.805 88.5424 118.867 88.4795C118.93 88.4166 118.993 88.2909 119.056 88.228C119.119 88.1022 119.119 88.0393 119.119 87.9136V87.7249H119.873V87.9136C119.873 88.1651 119.81 88.3538 119.747 88.5424C119.685 88.7311 119.559 88.9197 119.37 89.0455C119.245 89.1713 119.056 89.297 118.867 89.4228C118.679 89.4857 118.49 89.5486 118.239 89.5486Z" fill="#081D31"/>
<path d="M125.404 84.8953C125.342 84.7066 125.216 84.5809 125.09 84.4551C124.964 84.3293 124.839 84.2035 124.65 84.1407C124.462 84.0778 124.273 84.0149 124.084 84.0149C123.896 84.0149 123.707 84.0778 123.519 84.1407C123.33 84.2035 123.204 84.3293 123.079 84.4551C122.953 84.5809 122.827 84.7066 122.764 84.8953C122.702 85.0839 122.639 85.2726 122.639 85.4612V87.9138C122.639 88.1024 122.702 88.2911 122.764 88.4797C122.827 88.6684 122.953 88.7942 123.079 88.9199C123.204 89.0457 123.33 89.1715 123.519 89.2344C123.707 89.2973 123.896 89.3601 124.084 89.3601C124.273 89.3601 124.462 89.2973 124.65 89.2344C124.839 89.1715 124.964 89.0457 125.09 88.9199C125.216 88.7942 125.342 88.6684 125.404 88.4797C125.467 88.2911 125.53 88.1024 125.53 87.9138V85.4612C125.467 85.2726 125.467 85.0839 125.404 84.8953ZM125.153 87.9138C125.153 88.0396 125.153 88.2282 125.09 88.354C125.027 88.4797 124.964 88.6055 124.839 88.6684C124.713 88.7942 124.65 88.8571 124.524 88.9199C124.399 88.9828 124.273 88.9828 124.084 88.9828C123.959 88.9828 123.77 88.9828 123.644 88.9199C123.519 88.8571 123.393 88.7942 123.33 88.6684C123.204 88.5426 123.142 88.4797 123.079 88.354C123.016 88.2282 123.016 88.1024 123.016 87.9138V85.4612C123.016 85.3355 123.016 85.1468 123.079 85.0211C123.142 84.8953 123.204 84.7695 123.33 84.7066C123.456 84.5809 123.519 84.518 123.644 84.4551C123.77 84.3922 123.896 84.3922 124.084 84.3922C124.21 84.3922 124.399 84.3922 124.524 84.4551C124.65 84.518 124.776 84.5809 124.839 84.7066C124.902 84.8324 125.027 84.8953 125.09 85.0211C125.153 85.1468 125.153 85.2726 125.153 85.4612V87.9138Z" fill="#081D31"/>
<path d="M124.086 89.5486C123.834 89.5486 123.646 89.4857 123.457 89.4228C123.268 89.3599 123.08 89.2342 122.954 89.0455C122.828 88.9197 122.703 88.7311 122.577 88.5424C122.514 88.3538 122.451 88.1022 122.451 87.9136V85.461C122.451 85.2095 122.514 85.0208 122.577 84.8322C122.64 84.6435 122.765 84.4549 122.954 84.3291C123.08 84.2033 123.268 84.0776 123.457 83.9518C123.834 83.7631 124.337 83.7631 124.714 83.9518C124.903 84.0147 125.091 84.1405 125.217 84.3291C125.343 84.4549 125.468 84.6435 125.594 84.8322C125.657 85.0208 125.72 85.2724 125.72 85.461V87.9136C125.72 88.1651 125.657 88.3538 125.594 88.5424C125.531 88.7311 125.406 88.9197 125.217 89.0455C125.091 89.1713 124.903 89.297 124.714 89.4228C124.526 89.4857 124.337 89.5486 124.086 89.5486ZM124.086 84.5806C123.96 84.5806 123.834 84.5806 123.771 84.6435C123.646 84.7064 123.583 84.7693 123.52 84.8322C123.457 84.8951 123.394 85.0208 123.331 85.0837C123.268 85.2095 123.268 85.2724 123.268 85.3982V87.8507C123.268 87.9764 123.268 88.1022 123.331 88.1651C123.394 88.2909 123.457 88.3538 123.52 88.4166C123.583 88.4795 123.708 88.5424 123.771 88.6053C123.96 88.6682 124.211 88.6682 124.4 88.6053C124.526 88.5424 124.588 88.4795 124.651 88.4166C124.714 88.3538 124.777 88.228 124.84 88.1651C124.903 88.0393 124.903 87.9764 124.903 87.8507V85.3982C124.903 85.2724 124.903 85.1466 124.84 85.0837C124.777 84.958 124.714 84.8951 124.651 84.8322C124.588 84.7693 124.463 84.7064 124.4 84.6435C124.337 84.6435 124.211 84.5806 124.086 84.5806Z" fill="#081D31"/>
<path d="M42.4306 98.7928L41.1106 94.2021H40.7334L42.242 99.4845L41.6763 101.748H42.0535L43.8764 94.2021H43.5621L42.4306 98.7928Z" fill="#081D31"/>
<path d="M42.2415 102H41.4243L41.9901 99.4846L40.4814 93.9507H41.2986L42.3672 97.9125L43.373 93.9507H44.1902L42.2415 102Z" fill="#081D31"/>
<path d="M50.9162 93.3217C50.9791 93.196 51.0419 93.0702 51.1677 92.9444C51.2934 92.8187 51.4191 92.7558 51.5448 92.6929C51.6705 92.63 51.8591 92.5671 51.9848 92.5671C52.1734 92.5671 52.2991 92.63 52.4249 92.6929C52.5506 92.7558 52.6763 92.8187 52.802 92.9444C52.9277 93.0702 52.9906 93.196 53.0535 93.3217C53.1163 93.4475 53.1792 93.6362 53.1792 93.7619H53.5563C53.5563 93.5733 53.4935 93.3217 53.4306 93.196C53.3678 93.0073 53.242 92.8187 53.1163 92.6929C52.9906 92.5671 52.802 92.4413 52.6134 92.3785C52.4249 92.3156 52.2363 92.2527 52.0477 92.2527C51.8591 92.2527 51.6077 92.3156 51.482 92.3785C51.2934 92.4413 51.1048 92.5671 50.9791 92.6929C50.8534 92.8187 50.7276 93.0073 50.6648 93.196C50.6019 93.3846 50.5391 93.5733 50.5391 93.7619V97.9124C50.5391 98.101 50.6019 98.3526 50.6648 98.4783C50.7276 98.667 50.8534 98.8556 50.9791 98.9814C51.1048 99.1072 51.2934 99.233 51.482 99.2958C51.6705 99.3587 51.8591 99.4216 52.0477 99.4216C52.2363 99.4216 52.4249 99.3587 52.6134 99.2958C52.802 99.233 52.9277 99.1072 53.1163 98.9814C53.242 98.8556 53.3678 98.667 53.4306 98.4783C53.4935 98.2897 53.5563 98.101 53.5563 97.9124H53.1792C53.1792 98.101 53.1163 98.2268 53.0535 98.3526C52.9906 98.4783 52.9277 98.6041 52.802 98.7299C52.6763 98.8556 52.5506 98.9185 52.4249 98.9814C52.2991 99.0443 52.1106 99.1072 51.9848 99.1072C51.7963 99.1072 51.6705 99.0443 51.5448 98.9814C51.4191 98.9185 51.2934 98.8556 51.1677 98.7299C51.0419 98.6041 50.9791 98.4783 50.9162 98.3526C50.8534 98.2268 50.7905 98.0381 50.7905 97.9124V93.7619C50.7905 93.5733 50.8534 93.4475 50.9162 93.3217Z" fill="#081D31"/>
<path d="M51.9847 99.6733C51.7332 99.6733 51.5447 99.6104 51.2932 99.5475C51.1046 99.4847 50.9161 99.3589 50.7275 99.1702C50.6018 98.9816 50.476 98.8558 50.3503 98.6043C50.2875 98.4156 50.2246 98.1641 50.2246 97.9125V93.7621C50.2246 93.5106 50.2875 93.3219 50.3503 93.0704C50.4132 92.8817 50.5389 92.6931 50.7275 92.5044C50.9161 92.3786 51.0418 92.2529 51.2932 92.1271C51.7332 91.9384 52.2361 91.9384 52.6761 92.1271C52.8647 92.19 53.0533 92.3157 53.2419 92.5044C53.3676 92.6302 53.4933 92.8188 53.619 93.0704C53.6819 93.259 53.7448 93.5106 53.7448 93.7621V93.9508H52.9904V93.7621C52.9904 93.6363 52.9904 93.5106 52.9276 93.3848C52.8647 93.259 52.8019 93.1961 52.739 93.0704C52.6761 93.0075 52.5504 92.9446 52.4247 92.8817C52.1733 92.7559 51.9218 92.7559 51.6704 92.8817C51.5447 92.9446 51.4189 93.0075 51.3561 93.0704C51.2932 93.1333 51.2304 93.259 51.1675 93.3848C51.1046 93.5106 51.1046 93.6363 51.1046 93.7621V97.9125C51.1046 98.0383 51.1046 98.1641 51.1675 98.2898C51.2304 98.4156 51.2932 98.5414 51.3561 98.6043C51.4189 98.6671 51.5447 98.73 51.6704 98.7929C51.9218 98.9187 52.1733 98.9187 52.4247 98.7929C52.5504 98.73 52.6133 98.6671 52.739 98.6043C52.8019 98.5414 52.8647 98.4156 52.9276 98.2898C52.9904 98.1641 52.9904 98.0383 52.9904 97.9125V97.7239H53.7448V97.9125C53.7448 98.1641 53.6819 98.3527 53.619 98.6043C53.5562 98.7929 53.4305 98.9816 53.2419 99.1702C53.1162 99.296 52.9276 99.4218 52.6761 99.5475C52.4876 99.6104 52.2361 99.6733 51.9847 99.6733Z" fill="#081D31"/>
<path d="M57.2026 94.6425V94.5796V94.2023H56.8254H56.4482V94.5796H56.8254V95.5858V96.8435V99.4218H57.2026V96.8435V95.5858C57.2026 95.46 57.2026 95.2713 57.2654 95.1456C57.3283 95.0198 57.3911 94.894 57.5169 94.8311C57.6426 94.7054 57.7054 94.6425 57.8312 94.5796C57.9569 94.5167 58.0826 94.5167 58.2712 94.5167H58.7112V94.1394H58.2712C57.8311 94.1394 57.454 94.3281 57.2026 94.6425Z" fill="#081D31"/>
<path d="M57.3912 99.6104H56.6369V94.7682H56.2598V94.0136H57.3912V94.2022C57.6427 94.0765 57.8941 93.9507 58.2084 93.9507H58.8999V94.7053H58.2713C58.1456 94.7053 58.0198 94.7053 57.957 94.7682C57.8313 94.8311 57.7684 94.894 57.7055 94.9569C57.6427 95.0197 57.5798 95.1455 57.517 95.2084C57.4541 95.3342 57.4541 95.397 57.4541 95.5228V99.6104H57.3912Z" fill="#081D31"/>
<path d="M63.6146 94.5796C63.4889 94.4538 63.3632 94.3281 63.1746 94.2652C62.986 94.2023 62.7974 94.1394 62.6089 94.1394C62.4203 94.1394 62.2317 94.2023 62.0431 94.2652C61.8545 94.3281 61.7288 94.4538 61.6031 94.5796C61.4774 94.7054 61.3517 94.8311 61.2888 95.0198C61.2259 95.2085 61.1631 95.3971 61.1631 95.5858V98.0383C61.1631 98.2269 61.2259 98.4156 61.2888 98.6043C61.3517 98.7929 61.4774 98.9187 61.6031 99.0445C61.7288 99.1702 61.8545 99.296 62.0431 99.3589C62.2317 99.4218 62.4203 99.4847 62.6089 99.4847C62.7974 99.4847 62.986 99.4218 63.1746 99.3589C63.3632 99.296 63.4889 99.1702 63.6146 99.0445C63.7403 98.9187 63.866 98.7929 63.9289 98.6043C63.9918 98.4156 64.0546 98.2269 64.0546 98.0383H63.6775C63.6775 98.1641 63.6775 98.3527 63.6146 98.4785C63.5517 98.6043 63.4889 98.73 63.3632 98.7929C63.2375 98.9187 63.1746 98.9816 63.0489 99.0445C62.9232 99.1073 62.7974 99.1074 62.6089 99.1074C62.4831 99.1074 62.2946 99.1073 62.1688 99.0445C62.0431 98.9816 61.9174 98.9187 61.8545 98.7929C61.7288 98.6672 61.666 98.6043 61.6031 98.4785C61.5402 98.3527 61.5402 98.2269 61.5402 98.0383V97.1579C61.6031 97.1579 61.7288 97.095 61.9174 97.0321C62.106 96.9692 62.2317 96.9064 62.4203 96.8435C62.6089 96.7806 62.7346 96.7177 62.9232 96.6548C63.0489 96.5919 63.1746 96.529 63.2375 96.529C63.8032 96.3404 64.0546 96.026 64.0546 95.5858C64.0546 95.3971 63.9918 95.2085 63.9289 95.0198C63.8032 94.8311 63.7403 94.7054 63.6146 94.5796ZM63.4889 95.9631C63.3632 96.0889 63.2375 96.1517 63.1117 96.2146C63.0489 96.2146 62.986 96.2775 62.8603 96.3404C62.7346 96.4033 62.6089 96.4662 62.4203 96.529C62.2946 96.5919 62.106 96.6548 61.9803 96.7177C61.8545 96.7806 61.666 96.8435 61.6031 96.8435V95.5858C61.6031 95.46 61.6031 95.2713 61.666 95.1456C61.7288 95.0198 61.7917 94.894 61.9174 94.8311C62.0431 94.7054 62.106 94.6425 62.2317 94.5796C62.3574 94.5167 62.4831 94.5167 62.6717 94.5167C62.7974 94.5167 62.986 94.5167 63.1117 94.5796C63.2375 94.6425 63.3632 94.7054 63.426 94.8311C63.5518 94.9569 63.6146 95.0198 63.6775 95.1456C63.7403 95.2713 63.7403 95.3971 63.7403 95.5858C63.6775 95.7115 63.6146 95.8373 63.4889 95.9631Z" fill="#081D31"/>
<path d="M62.608 99.6733C62.3565 99.6733 62.168 99.6104 61.9794 99.5476C61.7908 99.4847 61.6022 99.3589 61.4765 99.1702C61.3508 99.0445 61.2251 98.8558 61.0994 98.6672C61.0365 98.4785 60.9736 98.227 60.9736 98.0383V95.5858C60.9736 95.3342 61.0365 95.1456 61.0994 94.9569C61.1622 94.7683 61.2879 94.5796 61.4765 94.4539C61.6022 94.3281 61.7908 94.2023 61.9794 94.0766C62.3565 93.8879 62.8594 93.8879 63.2366 94.0766C63.4252 94.1394 63.6137 94.2652 63.7395 94.4539C63.8652 94.5796 63.9909 94.7683 64.1166 94.9569C64.1795 95.1456 64.2423 95.3971 64.2423 95.5858C64.2423 95.9631 64.0538 96.4662 63.2994 96.7806C63.2366 96.7806 63.1109 96.8435 62.9851 96.9064C62.8594 96.9693 62.6708 97.0321 62.4823 97.095C62.2937 97.1579 62.168 97.2208 61.9794 97.2837C61.9165 97.3466 61.7908 97.3466 61.7279 97.3466V98.1012C61.7279 98.227 61.728 98.3527 61.7908 98.4156C61.8537 98.5414 61.9165 98.6043 61.9794 98.6672C62.0422 98.73 62.168 98.7929 62.2308 98.8558C62.4194 98.9187 62.6708 98.9187 62.8594 98.8558C62.9851 98.7929 63.048 98.73 63.1109 98.6672C63.1737 98.6043 63.2366 98.4785 63.2994 98.4156C63.3623 98.2899 63.3623 98.227 63.3623 98.1012V97.9125H64.1166V98.1012C64.1166 98.3527 64.0538 98.5414 63.9909 98.73C63.928 98.9187 63.8023 99.1074 63.6137 99.2331C63.488 99.3589 63.2994 99.4847 63.1109 99.6104C63.048 99.6104 62.7966 99.6733 62.608 99.6733ZM62.608 94.7054C62.4823 94.7054 62.3565 94.7054 62.2937 94.7683C62.168 94.8312 62.1051 94.8941 62.0422 94.9569C61.9794 95.0198 61.9165 95.1456 61.8537 95.2085C61.7908 95.3342 61.7908 95.3971 61.7908 95.5229V96.4033L61.8537 96.3404C61.9794 96.2775 62.168 96.2146 62.2937 96.1518C62.4194 96.0889 62.608 96.026 62.7337 96.026L62.9851 95.9002C63.1109 95.8373 63.1737 95.7744 63.2994 95.7116C63.3623 95.6487 63.4252 95.5858 63.4252 95.46C63.4252 95.3343 63.4252 95.2085 63.3623 95.1456C63.2994 95.0198 63.2366 94.9569 63.1737 94.894C63.1109 94.8312 62.9851 94.7683 62.9223 94.7054C62.7966 94.7054 62.7337 94.7054 62.608 94.7054Z" fill="#081D31"/>
<path d="M71.8487 94.5796C71.723 94.4538 71.5973 94.3281 71.4087 94.2652C71.2201 94.2023 71.0315 94.1394 70.843 94.1394C70.5915 94.1394 70.3401 94.2023 70.0887 94.3281C69.9001 94.4538 69.7115 94.6425 69.5858 94.8311C69.4601 94.6425 69.2715 94.4538 69.0829 94.3281C68.8315 94.2023 68.6429 94.1394 68.3286 94.1394C68.14 94.1394 67.9514 94.2023 67.7628 94.2652C67.5743 94.3281 67.4485 94.4538 67.26 94.6425V94.2023H66.8828V95.5858V96.8435V99.4218H67.26V96.8435V95.5858C67.26 95.46 67.26 95.2713 67.3228 95.1456C67.3857 95.0198 67.4485 94.894 67.5743 94.8311C67.7 94.7054 67.7628 94.6425 67.8886 94.5796C68.0143 94.5167 68.14 94.5167 68.3286 94.5167C68.4543 94.5167 68.6429 94.5167 68.7686 94.5796C68.8943 94.6425 69.02 94.7054 69.0829 94.8311C69.2086 94.9569 69.2715 95.0198 69.3343 95.1456C69.3972 95.2713 69.3972 95.3971 69.3972 95.5858V96.8435V99.4218H69.7744V96.8435V95.5858C69.7744 95.46 69.7744 95.2713 69.8372 95.1456C69.9001 95.0198 69.9629 94.894 70.0887 94.8311C70.2144 94.7054 70.2772 94.6425 70.403 94.5796C70.5287 94.5167 70.6544 94.5167 70.843 94.5167C70.9687 94.5167 71.1573 94.5167 71.283 94.5796C71.4087 94.6425 71.5344 94.7054 71.5973 94.8311C71.723 94.9569 71.7859 95.0198 71.8487 95.1456C71.9116 95.2713 71.9116 95.3971 71.9116 95.5858V96.8435V99.4218H72.2887V96.8435V95.5858C72.2887 95.3971 72.2259 95.2085 72.163 95.0198C72.1002 94.8311 71.9744 94.7054 71.8487 94.5796Z" fill="#081D31"/>
<path d="M72.4777 99.6104H71.6605V95.5857C71.6605 95.46 71.6605 95.3342 71.5976 95.2713C71.5348 95.1455 71.4719 95.0827 71.4091 95.0198C71.3462 94.9569 71.2205 94.894 71.1576 94.8311C70.969 94.7682 70.7176 94.7682 70.529 94.8311C70.4033 94.894 70.3405 94.9569 70.2776 95.0198C70.2147 95.0827 70.1519 95.2084 70.089 95.2713C70.0262 95.3971 70.0262 95.46 70.0262 95.5857V99.6733H69.209V95.5857C69.209 95.46 69.209 95.3342 69.1461 95.2713C69.0833 95.1455 69.0204 95.0827 68.9575 95.0198C68.8947 94.9569 68.769 94.894 68.7061 94.8311C68.5175 94.7682 68.2661 94.7682 68.0775 94.8311C67.9518 94.894 67.8889 94.9569 67.8261 95.0198C67.7632 95.0827 67.7003 95.2084 67.6375 95.2713C67.5746 95.3971 67.5746 95.46 67.5746 95.5857V99.6733H66.8203V94.0136H67.5746V94.2023C67.6375 94.1394 67.7003 94.1394 67.7632 94.1394C68.2661 93.8878 68.8318 93.9507 69.2718 94.2023C69.3976 94.2651 69.5861 94.3909 69.649 94.5167C69.7747 94.3909 69.9004 94.2651 70.0262 94.2023C70.4662 93.9507 71.0319 93.8878 71.5348 94.0765C71.7234 94.1394 71.9119 94.2651 72.0377 94.4538C72.1634 94.5796 72.2891 94.7682 72.4148 94.9569C72.4777 95.1455 72.5405 95.3971 72.5405 95.5857V99.6104H72.4777Z" fill="#081D31"/>
<path d="M77.6944 94.5796C77.5687 94.4538 77.443 94.3281 77.2544 94.2652C77.0658 94.2023 76.9401 94.1394 76.6887 94.1394C76.5001 94.1394 76.3115 94.2023 76.1229 94.2652C75.9344 94.3281 75.8086 94.4538 75.6829 94.5796C75.5572 94.7054 75.4315 94.8311 75.3686 95.0198C75.3058 95.2085 75.2429 95.3971 75.2429 95.5858H75.6201C75.6201 95.46 75.6201 95.2713 75.6829 95.1456C75.7458 95.0198 75.8086 94.894 75.9344 94.8311C76.0601 94.7054 76.1229 94.6425 76.2487 94.5796C76.3744 94.5167 76.5001 94.5167 76.6887 94.5167C77.003 94.5167 77.1915 94.6425 77.3801 94.8311C77.5687 95.0198 77.6316 95.2713 77.6316 95.5858V96.1517C77.5687 96.2146 77.443 96.2146 77.2544 96.2775C77.0658 96.3404 76.9401 96.4033 76.7515 96.4662C76.563 96.529 76.4372 96.5919 76.2487 96.6548C76.1229 96.7177 75.9972 96.7806 75.9344 96.7806C75.4315 96.9692 75.1172 97.2837 75.1172 97.7239V98.0383C75.1172 98.2269 75.18 98.4156 75.2429 98.6043C75.3058 98.7929 75.4315 98.9187 75.5572 99.0445C75.6829 99.1702 75.8086 99.296 75.9972 99.3589C76.1858 99.4218 76.3744 99.4847 76.563 99.4847C76.7515 99.4847 76.9401 99.4218 77.1287 99.3589C77.3173 99.296 77.443 99.1702 77.6316 98.9816V99.4218H78.0087V98.0383V96.7806V95.5229C78.0087 95.3342 77.9459 95.1456 77.883 94.9569C77.883 94.8311 77.8201 94.7054 77.6944 94.5796ZM77.6944 96.7806V98.0383C77.6944 98.1641 77.6944 98.3527 77.6316 98.4785C77.5687 98.6043 77.5058 98.73 77.3801 98.7929C77.2544 98.9187 77.1915 98.9816 77.0658 99.0445C76.9401 99.1073 76.8144 99.1074 76.6258 99.1074C76.5001 99.1074 76.3115 99.1073 76.1858 99.0445C76.0601 98.9816 75.9344 98.9187 75.8715 98.7929C75.7458 98.6672 75.6829 98.6043 75.6201 98.4785C75.5572 98.3527 75.5572 98.2269 75.5572 98.0383V97.7239C75.5572 97.5352 75.6201 97.4094 75.7458 97.3466C75.8715 97.2208 75.9972 97.1579 76.1229 97.095C76.1858 97.095 76.2487 97.0321 76.3744 96.9692C76.5001 96.9064 76.6258 96.8435 76.8144 96.7806C76.9401 96.7177 77.1287 96.6548 77.2544 96.5919C77.3801 96.5291 77.5687 96.4662 77.6316 96.4662V96.7806H77.6944Z" fill="#081D31"/>
<path d="M76.689 99.6733C76.4376 99.6733 76.249 99.6104 76.0604 99.5476C75.8719 99.4847 75.6833 99.3589 75.5576 99.1702C75.4318 99.0445 75.3061 98.8558 75.1804 98.6672C75.1175 98.4785 75.0547 98.227 75.0547 98.0383V97.7239C75.0547 97.3466 75.2433 96.8435 75.9976 96.592C76.0604 96.592 76.1862 96.5291 76.3119 96.4662C76.4376 96.4033 76.6262 96.3404 76.8148 96.2775C77.0033 96.2146 77.1291 96.1518 77.3176 96.0889C77.3805 96.026 77.5062 96.026 77.5691 96.026V95.5858C77.5691 95.3342 77.5062 95.1456 77.3805 94.9569C77.2548 94.7683 77.0662 94.7054 76.8148 94.7054C76.689 94.7054 76.5633 94.7054 76.5005 94.7683C76.3747 94.8312 76.3119 94.8941 76.249 94.9569C76.1862 95.0198 76.1233 95.1456 76.0604 95.2085C75.9976 95.3342 75.9976 95.3971 75.9976 95.5229V95.7116H75.2433V95.5858C75.2433 95.3342 75.3061 95.1456 75.369 94.9569C75.4318 94.7683 75.5576 94.5796 75.7461 94.4539C75.8719 94.3281 76.0604 94.2023 76.249 94.0766C76.6262 93.8879 77.1291 93.8879 77.5062 94.0766C77.6948 94.1394 77.8834 94.2652 78.0091 94.4539C78.1348 94.5796 78.2605 94.7683 78.3234 94.9569C78.3862 95.1456 78.4491 95.3971 78.4491 95.5858V99.6733H77.6948V99.4847C77.6319 99.5476 77.5691 99.5476 77.5062 99.5476C77.1291 99.6104 76.8776 99.6733 76.689 99.6733ZM77.5062 96.8435C77.5062 96.8435 77.4433 96.8435 77.3805 96.9064C77.2548 96.9693 77.0662 97.0321 76.9405 97.095L76.249 97.3466C76.1233 97.4095 75.9976 97.4723 75.9347 97.5352C75.8719 97.5981 75.809 97.661 75.809 97.7868V98.1012C75.809 98.227 75.809 98.3527 75.8719 98.4156C75.9347 98.5414 75.9976 98.6043 76.0604 98.6672C76.1233 98.73 76.249 98.7929 76.3119 98.8558C76.5005 98.9187 76.7519 98.9187 76.9405 98.8558C77.0662 98.7929 77.1291 98.73 77.1919 98.6672C77.2548 98.6043 77.3176 98.4785 77.3805 98.4156C77.4433 98.2899 77.4433 98.227 77.4433 98.1012V96.8435H77.5062Z" fill="#081D31"/>
<path d="M81.592 92.6929H81.2148V94.1392V94.5166V96.7804V98.0381C81.2148 98.2268 81.2777 98.4154 81.3406 98.6041C81.4034 98.7928 81.5291 98.9185 81.592 99.0443C81.7177 99.1701 81.8434 99.2958 81.9692 99.3587C82.0949 99.4216 82.2835 99.4845 82.472 99.4845V99.1072C82.3463 99.1072 82.2206 99.1072 82.0949 99.0443C81.9692 98.9814 81.9063 98.9185 81.7806 98.7928C81.7177 98.667 81.6549 98.6041 81.592 98.4783C81.5291 98.3526 81.5291 98.2268 81.5291 98.0381V96.7804V94.5166H82.6606V94.1392H81.5291V92.6929H81.592Z" fill="#081D31"/>
<path d="M82.7236 99.6733H82.535C82.3464 99.6733 82.1578 99.6104 81.9693 99.5475C81.7807 99.4847 81.655 99.3589 81.4664 99.1702C81.3407 99.0445 81.215 98.8558 81.1521 98.6671C81.0892 98.4785 81.0264 98.2269 81.0264 98.0383V92.5044H81.7807V93.9507H82.9122V94.7054H81.7807V97.9754C81.7807 98.1012 81.7807 98.227 81.8435 98.2898C81.9064 98.4156 81.9064 98.4785 82.0321 98.5414C82.095 98.6043 82.1578 98.6671 82.2836 98.73C82.3464 98.7929 82.4721 98.7929 82.535 98.7929H82.7236V99.6733Z" fill="#081D31"/>
<path d="M87.6888 94.5796C87.5631 94.4538 87.4374 94.3281 87.2488 94.2652C87.0602 94.2023 86.8716 94.1394 86.6831 94.1394C86.4945 94.1394 86.3059 94.2023 86.1173 94.2652C85.9288 94.3281 85.803 94.4538 85.6773 94.5796C85.5516 94.7054 85.4259 94.8311 85.363 95.0198C85.3002 95.2085 85.2373 95.3971 85.2373 95.5858V98.0383C85.2373 98.2269 85.3002 98.4156 85.363 98.6043C85.4259 98.7929 85.5516 98.9187 85.6773 99.0445C85.803 99.1702 85.9288 99.296 86.1173 99.3589C86.3059 99.4218 86.4945 99.4847 86.6831 99.4847C86.8716 99.4847 87.0602 99.4218 87.2488 99.3589C87.4374 99.296 87.5631 99.1702 87.6888 99.0445C87.8145 98.9187 87.9403 98.7929 88.0031 98.6043C88.066 98.4156 88.1288 98.2269 88.1288 98.0383V95.5858C88.1288 95.3971 88.066 95.2085 88.0031 95.0198C87.9403 94.8311 87.8145 94.7054 87.6888 94.5796ZM87.7517 98.0383C87.7517 98.1641 87.7517 98.3527 87.6888 98.4785C87.626 98.6043 87.5631 98.73 87.4374 98.7929C87.3117 98.9187 87.2488 98.9816 87.1231 99.0445C86.9974 99.1073 86.8716 99.1074 86.6831 99.1074C86.5573 99.1074 86.3688 99.1073 86.2431 99.0445C86.1173 98.9816 85.9916 98.9187 85.9288 98.7929C85.803 98.6672 85.7402 98.6043 85.6773 98.4785C85.6145 98.3527 85.6145 98.2269 85.6145 98.0383V95.5858C85.6145 95.46 85.6145 95.2713 85.6773 95.1456C85.7402 95.0198 85.803 94.894 85.9288 94.8311C86.0545 94.7054 86.1173 94.6425 86.2431 94.5796C86.3688 94.5167 86.4945 94.5167 86.6831 94.5167C86.8088 94.5167 86.9974 94.5167 87.1231 94.5796C87.2488 94.6425 87.3745 94.7054 87.4374 94.8311C87.5002 94.9569 87.626 95.0198 87.6888 95.1456C87.7517 95.2713 87.7517 95.3971 87.7517 95.5858V98.0383Z" fill="#081D31"/>
<path d="M86.6832 99.6733C86.4317 99.6733 86.2432 99.6104 86.0546 99.5476C85.866 99.4847 85.6774 99.3589 85.5517 99.1702C85.426 99.0445 85.3003 98.8558 85.1745 98.6672C85.1117 98.4785 85.0488 98.227 85.0488 98.0383V95.5858C85.0488 95.3342 85.1117 95.1456 85.1745 94.9569C85.2374 94.7683 85.3631 94.5796 85.5517 94.4539C85.6774 94.3281 85.866 94.2023 86.0546 94.0766C86.4317 93.8879 86.9346 93.8879 87.3118 94.0766C87.5003 94.1394 87.6889 94.2652 87.8146 94.4539C87.9404 94.5796 88.0661 94.7683 88.1918 94.9569C88.2547 95.1456 88.3175 95.3971 88.3175 95.5858V98.0383C88.3175 98.2898 88.2547 98.4785 88.1918 98.6672C88.129 98.8558 88.0032 99.0445 87.8146 99.1702C87.6889 99.296 87.5003 99.4218 87.3118 99.5476C87.1232 99.6104 86.9346 99.6733 86.6832 99.6733ZM86.6832 94.7054C86.5575 94.7054 86.4317 94.7054 86.3689 94.7683C86.2432 94.8312 86.1803 94.8941 86.1174 94.9569C86.0546 95.0198 85.9917 95.1456 85.9289 95.2085C85.866 95.3342 85.866 95.3971 85.866 95.5229V97.9754C85.866 98.1012 85.866 98.227 85.9289 98.2899C85.9917 98.4156 86.0546 98.4785 86.1174 98.5414C86.1803 98.6043 86.306 98.6672 86.3689 98.73C86.5575 98.7929 86.8089 98.7929 86.9975 98.73C87.1232 98.6672 87.1861 98.6043 87.2489 98.5414C87.3118 98.4785 87.3746 98.3527 87.4375 98.2899C87.5004 98.1641 87.5004 98.1012 87.5004 97.9754V95.5858C87.5004 95.46 87.5004 95.3342 87.4375 95.2714C87.3746 95.1456 87.3118 95.0827 87.2489 95.0198C87.1861 94.9569 87.0603 94.8941 86.9975 94.8312C86.9346 94.7054 86.8089 94.7054 86.6832 94.7054Z" fill="#081D31"/>
<path d="M91.7123 94.6425V94.5796V94.2023H91.3352H90.958V94.5796H91.3352V95.5858V96.8435V99.4218H91.7123V96.8435V95.5858C91.7123 95.46 91.7123 95.2713 91.7752 95.1456C91.838 95.0198 91.9009 94.894 92.0266 94.8311C92.1523 94.7054 92.2152 94.6425 92.3409 94.5796C92.4666 94.5167 92.5924 94.5167 92.781 94.5167H93.221V94.1394H92.781C92.2781 94.1394 91.9638 94.3281 91.7123 94.6425Z" fill="#081D31"/>
<path d="M91.901 99.6104H91.1467V94.7682H90.7695V94.0136H91.901V94.2022C92.1524 94.0765 92.4039 93.9507 92.7182 93.9507H93.4096V94.7053H92.781C92.6553 94.7053 92.5296 94.7053 92.4667 94.7682C92.341 94.8311 92.2782 94.894 92.2153 94.9569C92.1524 95.0197 92.0896 95.1455 92.0267 95.2084C91.9639 95.3342 91.9639 95.397 91.9639 95.5228V99.6104H91.901Z" fill="#081D31"/>
<path d="M95.8613 94.1394V94.4538H96.1756V99.296H96.5528V94.4538V94.1394H96.1756H95.8613Z" fill="#081D31"/>
<path d="M96.7408 99.5474H95.9865V94.7052H95.6094V93.8877H96.7408V99.5474Z" fill="#081D31"/>
<path d="M96.3012 92.3784C96.2384 92.3784 96.1755 92.3784 96.1127 92.4413C96.0498 92.5042 96.0498 92.5671 96.0498 92.63C96.0498 92.6928 96.0498 92.7557 96.1127 92.8186C96.1755 92.8815 96.2384 92.8815 96.3012 92.8815C96.3641 92.8815 96.427 92.8815 96.4898 92.8186C96.5527 92.7557 96.5527 92.6928 96.5527 92.63C96.5527 92.5671 96.5527 92.5042 96.4898 92.4413C96.427 92.3784 96.3641 92.3784 96.3012 92.3784Z" fill="#081D31"/>
<path d="M96.3013 93.1332C96.1756 93.1332 96.0499 93.0703 95.987 93.0074C95.9242 92.9445 95.8613 92.8187 95.8613 92.693C95.8613 92.5672 95.9242 92.4414 95.987 92.3786C96.1756 92.1899 96.4899 92.1899 96.6785 92.3786C96.8042 92.4414 96.8042 92.5672 96.8042 92.7559C96.8042 92.8816 96.7414 93.0074 96.6785 93.1332C96.5528 93.0703 96.4271 93.1332 96.3013 93.1332Z" fill="#081D31"/>
<path d="M101.958 94.5796C101.833 94.4538 101.707 94.3281 101.518 94.2652C101.33 94.2023 101.141 94.1394 100.953 94.1394C100.764 94.1394 100.575 94.2023 100.387 94.2652C100.198 94.3281 100.073 94.4538 99.9468 94.5796C99.8211 94.7054 99.6954 94.8311 99.6326 95.0198C99.5697 95.2085 99.5068 95.3971 99.5068 95.5858V98.0383C99.5068 98.2269 99.5697 98.4156 99.6326 98.6043C99.6954 98.7929 99.8211 98.9187 99.9468 99.0445C100.073 99.1702 100.198 99.296 100.387 99.3589C100.575 99.4218 100.764 99.4847 100.953 99.4847C101.141 99.4847 101.33 99.4218 101.518 99.3589C101.707 99.296 101.833 99.1702 101.958 99.0445C102.084 98.9187 102.21 98.7929 102.273 98.6043C102.336 98.4156 102.398 98.2269 102.398 98.0383V95.5858C102.398 95.3971 102.336 95.2085 102.273 95.0198C102.21 94.8311 102.084 94.7054 101.958 94.5796ZM102.021 98.0383C102.021 98.1641 102.021 98.3527 101.958 98.4785C101.895 98.6043 101.833 98.73 101.707 98.7929C101.581 98.9187 101.518 98.9816 101.393 99.0445C101.267 99.1073 101.141 99.1074 100.953 99.1074C100.827 99.1074 100.638 99.1073 100.513 99.0445C100.387 98.9816 100.261 98.9187 100.198 98.7929C100.073 98.6672 100.01 98.6043 99.9468 98.4785C99.884 98.3527 99.884 98.2269 99.884 98.0383V95.5858C99.884 95.46 99.884 95.2713 99.9468 95.1456C100.01 95.0198 100.073 94.894 100.198 94.8311C100.324 94.7054 100.387 94.6425 100.513 94.5796C100.638 94.5167 100.764 94.5167 100.953 94.5167C101.078 94.5167 101.267 94.5167 101.393 94.5796C101.518 94.6425 101.644 94.7054 101.707 94.8311C101.77 94.9569 101.895 95.0198 101.958 95.1456C102.021 95.2713 102.021 95.3971 102.021 95.5858V98.0383Z" fill="#081D31"/>
<path d="M100.953 99.6733C100.701 99.6733 100.513 99.6104 100.324 99.5476C100.136 99.4847 99.947 99.3589 99.8212 99.1702C99.6955 99.0445 99.5698 98.8558 99.4441 98.6672C99.3812 98.4785 99.3184 98.227 99.3184 98.0383V95.5858C99.3184 95.3342 99.3812 95.1456 99.4441 94.9569C99.5069 94.7683 99.6327 94.5796 99.8212 94.4539C99.947 94.3281 100.136 94.2023 100.324 94.0766C100.701 93.8879 101.204 93.8879 101.581 94.0766C101.77 94.1394 101.958 94.2652 102.084 94.4539C102.21 94.5796 102.336 94.7683 102.461 94.9569C102.524 95.1456 102.587 95.3971 102.587 95.5858V98.0383C102.587 98.2898 102.524 98.4785 102.461 98.6672C102.398 98.8558 102.273 99.0445 102.084 99.1702C101.958 99.296 101.77 99.4218 101.581 99.5476C101.393 99.6104 101.204 99.6733 100.953 99.6733ZM100.953 94.7054C100.827 94.7054 100.701 94.7054 100.638 94.7683C100.513 94.8312 100.45 94.8941 100.387 94.9569C100.324 95.0198 100.261 95.1456 100.198 95.2085C100.136 95.3342 100.136 95.3971 100.136 95.5229V97.9754C100.136 98.1012 100.136 98.227 100.198 98.2899C100.261 98.4156 100.324 98.4785 100.387 98.5414C100.45 98.6043 100.576 98.6672 100.638 98.73C100.827 98.7929 101.078 98.7929 101.267 98.73C101.393 98.6672 101.456 98.6043 101.518 98.5414C101.581 98.4785 101.644 98.3527 101.707 98.2899C101.77 98.1641 101.77 98.1012 101.77 97.9754V95.5858C101.77 95.46 101.77 95.3342 101.707 95.2714C101.644 95.1456 101.581 95.0827 101.518 95.0198C101.456 94.9569 101.33 94.8941 101.267 94.8312C101.204 94.7054 101.078 94.7054 100.953 94.7054Z" fill="#081D31"/>
</svg>
